<svg width="498" height="409" viewBox="0 0 498 409" fill="none" xmlns="http://www.w3.org/2000/svg">
<g clip-path="url(#clip0_34_148)">
<path d="M255.415 97.09H253.171V35.5927C253.171 26.153 249.419 17.0998 242.739 10.4249C236.059 3.74994 227 4.64288e-09 217.553 4.64288e-09H87.1666C82.4891 -7.54882e-05 77.8574 0.920483 73.536 2.70912C69.2146 4.49775 65.288 7.11943 61.9805 10.4245C58.673 13.7295 56.0493 17.6532 54.2592 21.9715C52.4692 26.2897 51.5478 30.9181 51.5477 35.5922V372.971C51.5477 377.645 52.469 382.273 54.259 386.592C56.049 390.91 58.6726 394.834 61.9801 398.139C65.2875 401.444 69.2141 404.066 73.5355 405.854C77.8569 407.643 82.4885 408.564 87.166 408.564H217.551C226.998 408.564 236.058 404.814 242.737 398.139C249.417 391.464 253.17 382.411 253.17 372.971V140.865H255.413L255.415 97.09Z" fill="#3F3D56"/>
<path d="M245.907 33.2087V375.354C245.906 382.511 243.061 389.375 237.997 394.436C232.933 399.498 226.065 402.342 218.903 402.345H85.8412C78.6762 402.346 71.8041 399.503 66.7365 394.441C61.6689 389.38 58.8209 382.514 58.8187 375.354V33.2087C58.8209 26.0491 61.6688 19.1834 66.7361 14.1219C71.8035 9.06032 78.6753 6.21735 85.8401 6.21826H101.981C101.189 8.1659 100.887 10.2783 101.103 12.3697C101.318 14.4611 102.045 16.4675 103.218 18.2127C104.392 19.9578 105.976 21.3881 107.833 22.378C109.689 23.3679 111.76 23.8869 113.864 23.8896H189.725C191.829 23.8869 193.9 23.3679 195.756 22.378C197.612 21.3881 199.197 19.9578 200.37 18.2127C201.544 16.4675 202.27 14.4611 202.486 12.3697C202.702 10.2783 202.4 8.1659 201.608 6.21826H218.898C226.06 6.21948 232.928 9.06279 237.993 14.1231C243.058 19.1834 245.905 26.0465 245.907 33.2036V33.2087Z" fill="white"/>
<path d="M215.018 328.943H92.1323C87.7126 328.938 83.4754 327.182 80.3502 324.059C77.2251 320.936 75.4672 316.702 75.4622 312.285V139.536C75.4622 97.5928 109.61 63.4695 151.583 63.4695H215.018C219.438 63.4745 223.675 65.2311 226.8 68.354C229.925 71.4768 231.683 75.7109 231.688 80.1274V312.285C231.683 316.702 229.925 320.936 226.8 324.059C223.675 327.182 219.438 328.939 215.018 328.943Z" fill="#E6E6E6"/>
<path d="M84.7712 370.527C89.6572 370.527 93.6182 366.569 93.6182 361.686C93.6182 356.804 89.6572 352.846 84.7712 352.846C79.8851 352.846 75.9242 356.804 75.9242 361.686C75.9242 366.569 79.8851 370.527 84.7712 370.527Z" fill="#E6E6E6"/>
<path d="M222.554 370.527C227.44 370.527 231.401 366.569 231.401 361.686C231.401 356.804 227.44 352.846 222.554 352.846C217.668 352.846 213.707 356.804 213.707 361.686C213.707 366.569 217.668 370.527 222.554 370.527Z" fill="#E6E6E6"/>
<path d="M223.753 328.604L218.268 334.576L192.606 316.28L200.7 307.465L223.753 328.604Z" fill="#FFB6B6"/>
<path d="M230.945 332.393L213.261 351.65L213.017 351.427C211.028 349.603 209.845 347.063 209.729 344.368C209.614 341.672 210.574 339.041 212.399 337.053L212.399 337.053L212.959 331.086L221.657 326.972L223.2 325.291L230.945 332.393Z" fill="#2F2E41"/>
<path d="M227.339 395.253L219.227 395.253L215.368 363.988L227.34 363.988L227.339 395.253Z" fill="#FFB6B6"/>
<path d="M229.407 403.111L203.252 403.11V402.779C203.252 400.081 204.325 397.494 206.234 395.586C208.143 393.678 210.733 392.606 213.432 392.606H213.433L218.211 388.984L227.125 392.607L229.408 392.607L229.407 403.111Z" fill="#2F2E41"/>
<path d="M188.167 237.42C188.167 237.42 138.614 285.23 169.94 300.029H179.623C179.623 300.029 182.533 289.699 189.194 280.988C190.109 279.791 193.536 280.034 194.488 278.868C200.299 271.75 206.599 265.636 210.95 265.879L213.797 298.89L212.392 308.566C211.508 314.657 211.741 320.858 213.079 326.866L212.089 365.483L229.463 365.493C229.463 365.493 230.165 356.442 230.752 345.123C230.909 342.09 232.215 339.977 232.34 336.75C232.64 329.011 231.646 320.004 231.454 313.689L244.554 244.25L188.167 237.42Z" fill="#2F2E41"/>
<path d="M211.054 136.122L202.974 146.923L183.609 158.305L194.999 187.901L195.431 209.922L194.371 212.579L195.569 216.929C195.569 216.929 195.016 222.021 192.07 225.801C186.919 232.41 179.054 239.593 187.025 241.403C199.556 244.25 243.983 250.51 246.261 245.388C247.049 243.616 246.951 236.123 246.486 227.08C246.399 225.389 244.53 223.549 244.42 221.777C244.338 220.447 246.021 219.196 245.929 217.847C244.913 202.818 243.414 187.333 243.414 187.333L247.872 145.895L230.038 141.296L228.036 136.195L211.054 136.122Z" fill="#E5E5E5"/>
<path d="M167.561 297.189L170.21 300.533C170.21 300.533 194.57 317.563 195.406 319.155L199.256 322.795L208.571 312.845L203.727 306.778C199.85 301.922 194.841 298.09 189.139 295.618L181.715 289.036L167.561 297.189Z" fill="#2F2E41"/>
<path d="M183.04 249.39L187.476 206.483L188.646 188.824L176.23 186.58C176.23 186.58 174.371 198.72 172.744 205.844C171.139 212.874 174.883 248.448 174.982 249.386C174.07 250.201 173.427 251.273 173.138 252.461C172.85 253.649 172.929 254.897 173.365 256.039C173.801 257.181 174.574 258.163 175.581 258.857C176.588 259.551 177.782 259.922 179.006 259.923C180.229 259.923 181.424 259.553 182.431 258.86C183.439 258.168 184.213 257.186 184.65 256.044C185.088 254.902 185.168 253.655 184.88 252.467C184.592 251.279 183.951 250.206 183.04 249.39Z" fill="#FFB9B9"/>
<path d="M166.997 213.691L188.432 219.128L188.283 213.116L189.909 211.392L193.16 194.377L197.823 184.41L196.611 150.327L184.767 156.604L184.752 156.616C182.684 158.889 180.954 161.449 179.616 164.215C175.151 173.286 170.862 193.265 168.617 204.869C168.54 205.113 168.391 205.327 168.19 205.484C167.076 206.506 166.349 207.88 166.132 209.376C165.915 210.871 166.22 212.395 166.997 213.691L166.997 213.691Z" fill="#E5E5E5"/>
<path d="M294.284 224.646C294.284 224.646 268.19 197.155 267.946 196.637C266.124 182.805 260.881 176.704 260.095 177.366L246.564 182.051C246.564 182.051 250.589 194.787 253.314 202.352C255.918 209.58 285.928 227.236 286.429 228.108C285.891 229.294 285.727 230.616 285.957 231.898C286.187 233.18 286.801 234.361 287.718 235.287C288.635 236.212 289.812 236.838 291.092 237.08C292.373 237.323 293.697 237.172 294.889 236.646C296.082 236.12 297.086 235.245 297.77 234.137C298.454 233.028 298.785 231.738 298.72 230.438C298.654 229.137 298.195 227.887 297.403 226.853C296.611 225.818 295.523 225.049 294.284 224.646H294.284Z" fill="#FFB9B9"/>
<path d="M235.638 146.84C235.638 146.84 248.921 140.335 254.072 153.112C256.897 160.324 264.12 177.83 267.72 188.606C267.744 188.674 267.777 188.739 267.818 188.799C268.781 190.228 269.3 191.91 269.311 193.633C269.31 193.758 269.323 193.884 269.35 194.006C269.35 194.006 254.754 196.848 250.413 204.493L248.691 202.626L248.384 201.318L235.791 167.739L235.638 146.84Z" fill="#E5E5E5"/>
<path d="M452.554 198.985H297.044C295.658 198.984 294.33 198.433 293.35 197.454C292.37 196.475 291.819 195.147 291.817 193.763V171.003C291.819 169.619 292.37 168.291 293.35 167.312C294.33 166.333 295.658 165.782 297.044 165.781H452.554C453.939 165.782 455.268 166.333 456.248 167.312C457.227 168.291 457.779 169.619 457.78 171.003V193.763C457.779 195.147 457.227 196.475 456.248 197.454C455.268 198.433 453.939 198.984 452.554 198.985Z" fill="#E6E6E6"/>
<path d="M437.444 195.463H300.57C299.184 195.461 297.856 194.91 296.876 193.931C295.896 192.952 295.345 191.624 295.343 190.24V174.529C295.345 173.144 295.896 171.817 296.876 170.838C297.856 169.859 299.184 169.308 300.57 169.306H449.029C450.414 169.308 451.743 169.859 452.723 170.838C453.702 171.817 454.253 173.144 454.255 174.529V178.664C454.25 183.118 452.477 187.387 449.326 190.537C446.174 193.686 441.901 195.458 437.444 195.463Z" fill="white"/>
<path d="M390.23 180.764H327.727C327.37 180.764 327.027 180.622 326.774 180.369C326.521 180.117 326.379 179.774 326.379 179.417C326.379 179.06 326.521 178.717 326.774 178.465C327.027 178.212 327.37 178.07 327.727 178.07H390.23C390.588 178.07 390.931 178.212 391.183 178.465C391.436 178.717 391.578 179.06 391.578 179.417C391.578 179.774 391.436 180.117 391.183 180.369C390.931 180.622 390.588 180.764 390.23 180.764Z" fill="#E5E5E5"/>
<path d="M421.871 186.273H327.727C327.37 186.273 327.027 186.131 326.774 185.878C326.521 185.626 326.379 185.283 326.379 184.926C326.379 184.569 326.521 184.226 326.774 183.974C327.027 183.721 327.37 183.579 327.727 183.579H421.871C422.228 183.579 422.571 183.721 422.824 183.974C423.076 184.226 423.219 184.569 423.219 184.926C423.219 185.283 423.076 185.626 422.824 185.878C422.571 186.131 422.228 186.273 421.871 186.273Z" fill="#E6E6E6"/>
<path d="M452.554 247.274H297.044C295.658 247.272 294.33 246.721 293.35 245.742C292.37 244.763 291.819 243.436 291.817 242.051V219.292C291.819 217.907 292.37 216.58 293.35 215.601C294.33 214.621 295.658 214.071 297.044 214.069H452.554C453.939 214.071 455.268 214.621 456.248 215.601C457.227 216.58 457.779 217.907 457.78 219.292V242.051C457.779 243.436 457.227 244.763 456.248 245.742C455.268 246.721 453.939 247.272 452.554 247.274Z" fill="#E6E6E6"/>
<path d="M437.444 243.751H300.57C299.184 243.749 297.856 243.199 296.876 242.22C295.896 241.241 295.345 239.913 295.343 238.528V222.817C295.345 221.433 295.896 220.105 296.876 219.126C297.856 218.147 299.184 217.596 300.57 217.595H449.029C450.414 217.596 451.743 218.147 452.723 219.126C453.702 220.105 454.253 221.433 454.255 222.817V226.952C454.25 231.406 452.477 235.676 449.326 238.825C446.174 241.975 441.901 243.746 437.444 243.751Z" fill="white"/>
<path d="M390.23 229.052H327.727C327.55 229.052 327.375 229.018 327.211 228.95C327.048 228.882 326.899 228.783 326.774 228.658C326.649 228.533 326.55 228.384 326.482 228.221C326.414 228.058 326.379 227.882 326.379 227.706C326.379 227.529 326.414 227.354 326.482 227.19C326.55 227.027 326.649 226.878 326.774 226.753C326.899 226.628 327.048 226.529 327.211 226.461C327.375 226.393 327.55 226.359 327.727 226.359H390.23C390.588 226.359 390.931 226.501 391.183 226.753C391.436 227.006 391.578 227.348 391.578 227.706C391.578 228.063 391.436 228.405 391.183 228.658C390.931 228.911 390.588 229.052 390.23 229.052Z" fill="#E5E5E5"/>
<path d="M421.871 234.561H327.727C327.55 234.561 327.375 234.527 327.211 234.459C327.048 234.391 326.899 234.292 326.774 234.167C326.649 234.042 326.55 233.893 326.482 233.73C326.414 233.567 326.379 233.391 326.379 233.215C326.379 233.038 326.414 232.863 326.482 232.699C326.55 232.536 326.649 232.387 326.774 232.262C326.899 232.137 327.048 232.038 327.211 231.97C327.375 231.903 327.55 231.868 327.727 231.868H421.871C422.228 231.868 422.571 232.01 422.824 232.262C423.076 232.515 423.219 232.857 423.219 233.215C423.219 233.572 423.076 233.914 422.824 234.167C422.571 234.42 422.228 234.561 421.871 234.561Z" fill="#E6E6E6"/>
<path d="M452.554 295.563H297.044C295.658 295.561 294.33 295.01 293.35 294.031C292.37 293.052 291.819 291.725 291.817 290.34V267.581C291.819 266.196 292.37 264.868 293.35 263.889C294.33 262.91 295.658 262.36 297.044 262.358H452.554C453.939 262.36 455.268 262.91 456.248 263.889C457.227 264.868 457.779 266.196 457.78 267.581V290.34C457.779 291.725 457.227 293.052 456.248 294.031C455.268 295.01 453.939 295.561 452.554 295.563Z" fill="#E6E6E6"/>
<path d="M437.444 292.04H300.57C299.184 292.038 297.856 291.487 296.876 290.508C295.896 289.529 295.345 288.202 295.343 286.817V271.106C295.345 269.721 295.896 268.394 296.876 267.415C297.856 266.436 299.184 265.885 300.57 265.883H449.029C450.414 265.885 451.743 266.436 452.723 267.415C453.702 268.394 454.253 269.721 454.255 271.106V275.241C454.25 279.695 452.477 283.965 449.326 287.114C446.174 290.263 441.901 292.035 437.444 292.04Z" fill="white"/>
<path d="M390.23 277.341H327.727C327.37 277.341 327.027 277.199 326.774 276.947C326.521 276.694 326.379 276.351 326.379 275.994C326.379 275.637 326.521 275.294 326.774 275.042C327.027 274.789 327.37 274.647 327.727 274.647H390.23C390.588 274.647 390.931 274.789 391.183 275.042C391.436 275.294 391.578 275.637 391.578 275.994C391.578 276.351 391.436 276.694 391.183 276.947C390.931 277.199 390.588 277.341 390.23 277.341Z" fill="#E5E5E5"/>
<path d="M421.871 282.85H327.727C327.37 282.85 327.027 282.708 326.774 282.456C326.521 282.203 326.379 281.86 326.379 281.503C326.379 281.146 326.521 280.803 326.774 280.551C327.027 280.298 327.37 280.156 327.727 280.156H421.871C422.228 280.156 422.571 280.298 422.824 280.551C423.076 280.803 423.219 281.146 423.219 281.503C423.219 281.86 423.076 282.203 422.824 282.456C422.571 282.708 422.228 282.85 421.871 282.85Z" fill="#E6E6E6"/>
<path d="M219.568 132.655C228.551 132.655 235.833 125.378 235.833 116.402C235.833 107.426 228.551 100.149 219.568 100.149C210.586 100.149 203.304 107.426 203.304 116.402C203.304 125.378 210.586 132.655 219.568 132.655Z" fill="#FFB9B9"/>
<path d="M207.61 126.855C207.415 126.855 207.221 126.824 207.036 126.762C206.31 126.444 205.703 125.905 205.302 125.222C202.502 121.198 201.15 115.832 201.284 109.274C201.34 106.499 201.655 102.952 203.599 100.124C205.234 97.7464 208.542 95.8595 211.624 96.8066C211.589 96.1907 211.726 95.5771 212.02 95.0343C212.313 94.4915 212.752 94.0409 213.287 93.7327C214.454 93.0182 215.86 92.8867 217.1 92.7702C220.231 92.477 223.467 92.1739 226.637 92.7742C230.192 93.4479 233.098 95.2787 234.611 97.7971L234.642 97.8762L234.949 99.3685C234.991 99.5691 235.075 99.7584 235.197 99.9233C235.318 100.088 235.474 100.225 235.654 100.324C235.833 100.423 236.032 100.482 236.236 100.496C236.441 100.511 236.646 100.481 236.838 100.409C237.047 100.331 237.273 100.308 237.494 100.343C237.715 100.378 237.923 100.471 238.098 100.611C238.272 100.751 238.407 100.934 238.489 101.142C238.57 101.35 238.597 101.576 238.564 101.797L238.479 102.391L239.373 102.224C239.596 102.182 239.827 102.2 240.042 102.277C240.256 102.353 240.446 102.485 240.593 102.659C240.739 102.833 240.837 103.042 240.877 103.266C240.916 103.49 240.895 103.721 240.816 103.934L240.564 104.617C240.749 104.618 240.932 104.657 241.101 104.731C241.27 104.806 241.422 104.914 241.548 105.05C241.729 105.244 241.843 105.491 241.873 105.755C241.904 106.018 241.849 106.285 241.717 106.515C240.718 108.223 239.3 109.648 237.598 110.657C236.667 111.216 235.65 111.616 234.588 111.84C227.693 113.326 220.584 113.54 213.613 112.47C214.026 113.844 214.184 115.282 214.082 116.712C213.859 118.502 212.807 119.978 211.403 120.474C211.084 120.578 210.757 120.657 210.425 120.71C210.107 120.759 209.795 120.835 209.49 120.937C209.039 121.102 208.639 121.384 208.331 121.754C208.024 122.123 207.819 122.567 207.738 123.041C207.656 123.514 207.702 124.001 207.869 124.452C208.036 124.902 208.319 125.301 208.69 125.607L209.382 124.886L209.157 125.803C209.11 125.981 209.026 126.148 208.91 126.292C208.795 126.436 208.65 126.553 208.486 126.638C208.216 126.782 207.915 126.856 207.61 126.855Z" fill="#2F2E41"/>
<path d="M433.862 372.257L434.52 357.472C441.38 353.808 449.031 351.872 456.809 351.834C446.104 360.58 447.442 377.439 440.184 389.2C437.893 392.851 434.808 395.939 431.159 398.237C427.511 400.535 423.391 401.982 419.107 402.473L410.148 407.954C408.919 401.106 409.19 394.073 410.943 387.34C412.695 380.607 415.888 374.334 420.3 368.952C422.805 365.958 425.678 363.29 428.85 361.013C430.996 366.666 433.862 372.257 433.862 372.257Z" fill="#F2F2F2"/>
<path d="M498 408.316C498 408.406 497.983 408.495 497.948 408.578C497.914 408.661 497.864 408.737 497.8 408.8C497.736 408.864 497.661 408.914 497.578 408.948C497.495 408.983 497.405 409 497.315 409H0.684581C0.503019 409 0.3289 408.928 0.200517 408.8C0.072133 408.671 0 408.497 0 408.316C0 408.135 0.072133 407.96 0.200517 407.832C0.3289 407.704 0.503019 407.632 0.684581 407.632H497.315C497.405 407.632 497.495 407.649 497.578 407.683C497.661 407.718 497.736 407.768 497.8 407.832C497.864 407.895 497.914 407.971 497.948 408.054C497.983 408.137 498 408.226 498 408.316Z" fill="#CCCCCC"/>
</g>
<defs>
<clipPath id="clip0_34_148">
<rect width="498" height="409" fill="white"/>
</clipPath>
</defs>
</svg>
