<svg width="116" height="116" viewBox="0 0 116 116" fill="none" xmlns="http://www.w3.org/2000/svg">
<path d="M41.3705 100.546V66.5064C41.3705 63.4971 40.1969 60.611 38.108 58.4831C36.0191 56.3552 33.1859 55.1597 30.2317 55.1597H19.093C16.1388 55.1597 13.3057 56.3552 11.2167 58.4831C9.12783 60.611 7.95428 63.4971 7.95428 66.5064V100.546C7.95428 103.556 9.12783 106.442 11.2167 108.57C13.3057 110.698 16.1388 111.893 19.093 111.893H30.2317C33.1859 111.893 36.0191 110.698 38.108 108.57C40.1969 106.442 41.3705 103.556 41.3705 100.546ZM41.3705 100.546V43.8131C41.3705 40.8037 42.544 37.9177 44.6329 35.7898C46.7218 33.6619 49.555 32.4664 52.5092 32.4664H63.6479C66.6021 32.4664 69.4353 33.6619 71.5242 35.7898C73.6131 37.9177 74.7867 40.8037 74.7867 43.8131V100.546M41.3705 100.546C41.3705 103.556 42.544 106.442 44.6329 108.57C46.7218 110.698 49.555 111.893 52.5092 111.893H63.6479C66.6021 111.893 69.4353 110.698 71.5242 108.57C73.6131 106.442 74.7867 103.556 74.7867 100.546M74.7867 100.546V21.1197C74.7867 18.1104 75.9602 15.2243 78.0491 13.0964C80.138 10.9685 82.9712 9.77307 85.9254 9.77307H97.0641C100.018 9.77307 102.851 10.9685 104.94 13.0964C107.029 15.2243 108.203 18.1104 108.203 21.1197V100.546C108.203 103.556 107.029 106.442 104.94 108.57C102.851 110.698 100.018 111.893 97.0641 111.893H85.9254C82.9712 111.893 80.138 110.698 78.0491 108.57C75.9602 106.442 74.7867 103.556 74.7867 100.546Z" stroke="black" stroke-width="2" stroke-linecap="round" stroke-linejoin="round"/>
</svg>
