<svg width="33" height="33" viewBox="0 0 33 33" fill="none" xmlns="http://www.w3.org/2000/svg">
<path d="M26.62 4.62012H6.81999C5.60449 4.62012 4.62 5.60462 4.62 6.82012V26.6201C4.62 27.8356 5.60449 28.8201 6.81999 28.8201H17.82V18.9201H14.52V15.6201H17.82V13.848C17.82 10.493 19.4546 9.02012 22.2431 9.02012C23.5785 9.02012 24.2847 9.11912 24.6191 9.16422V12.3201H22.7172C21.5336 12.3201 21.12 12.9449 21.12 14.2099V15.6201H24.5894L24.1186 18.9201H21.12V28.8201H26.62C27.8355 28.8201 28.82 27.8356 28.82 26.6201V6.82012C28.82 5.60462 27.8344 4.62012 26.62 4.62012Z" fill="black"/>
</svg>
