<svg  viewBox="0 0 677 525" fill="none" xmlns="http://www.w3.org/2000/svg">
<g clip-path="url(#clip0_34_246)">
<path d="M112.289 182.762C110.705 182.904 109.112 182.937 107.522 182.861C107.251 182.835 106.979 182.904 106.765 183.054C106.551 183.204 106.412 183.423 106.377 183.664L103.336 203.947C103.103 205.42 102.425 206.808 101.375 207.966C100.509 208.887 99.8654 209.956 99.4841 211.108C99.1027 212.259 98.9916 213.468 99.1576 214.659V249.115C99.1576 249.115 98.9614 253.709 102.931 253.709C107.682 254.24 112.489 254.24 117.24 253.709C117.24 253.709 120.418 253.174 120.418 248.935V215.008C120.661 213.824 120.611 212.608 120.272 211.443C119.933 210.278 119.314 209.193 118.456 208.262C117.441 207.101 116.785 205.724 116.553 204.267L113.395 183.559C113.359 183.326 113.224 183.114 113.019 182.966C112.814 182.818 112.553 182.745 112.289 182.762Z" fill="white"/>
<path d="M110.072 254.688C107.67 254.688 105.272 254.555 102.889 254.29C102.357 254.302 101.827 254.215 101.335 254.035C100.842 253.856 100.396 253.588 100.025 253.248C98.4097 251.756 98.4995 249.201 98.5042 249.093L98.5037 214.695C98.3352 213.43 98.4583 212.148 98.8656 210.927C99.2729 209.706 99.9559 208.571 100.873 207.593C101.845 206.519 102.472 205.231 102.689 203.866L105.729 183.587C105.789 183.197 106.016 182.842 106.364 182.599C106.712 182.356 107.153 182.242 107.593 182.283C109.137 182.355 110.685 182.322 112.224 182.184L112.242 182.182C112.672 182.154 113.097 182.273 113.431 182.514C113.765 182.755 113.984 183.101 114.042 183.48L117.201 204.189C117.419 205.544 118.029 206.825 118.973 207.905C119.882 208.893 120.54 210.044 120.902 211.278C121.264 212.513 121.323 213.803 121.072 215.06V248.935C121.072 253.602 117.399 254.274 117.362 254.28C114.944 254.551 112.509 254.687 110.072 254.688ZM107.433 183.439C107.336 183.435 107.24 183.463 107.165 183.518C107.09 183.573 107.04 183.651 107.026 183.737L103.985 204.024C103.735 205.602 103.009 207.09 101.884 208.331C101.075 209.192 100.474 210.192 100.116 211.268C99.7591 212.344 99.6537 213.474 99.8067 214.588L99.8117 214.659V249.115C99.8104 249.158 99.7409 251.312 100.97 252.444C101.225 252.674 101.531 252.854 101.869 252.972C102.207 253.09 102.569 253.143 102.931 253.128L103.013 253.132C107.71 253.656 112.462 253.656 117.158 253.132C117.22 253.119 119.764 252.603 119.764 248.935L119.775 214.904C120.001 213.803 119.955 212.672 119.64 211.589C119.325 210.505 118.749 209.496 117.95 208.631C116.861 207.386 116.156 205.91 115.906 204.349L112.747 183.637C112.733 183.552 112.684 183.475 112.609 183.42C112.535 183.366 112.44 183.338 112.343 183.342C110.73 183.485 109.106 183.519 107.487 183.442C107.469 183.44 107.451 183.439 107.433 183.439H107.433Z" fill="#3F3D56"/>
<path d="M107.489 215.276H112.309C114.225 215.276 116.064 215.953 117.419 217.158C118.774 218.363 119.535 219.997 119.535 221.701V237.827C119.535 239.532 118.774 241.166 117.419 242.371C116.064 243.576 114.225 244.253 112.309 244.253H107.489C105.573 244.253 103.735 243.576 102.379 242.371C101.024 241.166 100.263 239.532 100.263 237.827V221.702C100.263 220.858 100.45 220.022 100.813 219.242C101.176 218.463 101.708 217.754 102.379 217.158C103.05 216.561 103.847 216.088 104.724 215.765C105.601 215.442 106.54 215.276 107.489 215.276Z" fill="#E5E5E5"/>
<path d="M18.8802 511.455H34.5937L42.0693 457.559L18.8774 457.56L18.8802 511.455Z" fill="#9F616A"/>
<path d="M14.8722 506.893L45.8178 506.892H45.819C51.0492 506.892 56.0651 508.74 59.7634 512.029C63.4618 515.317 65.5396 519.778 65.5399 524.429V524.998L14.8731 525L14.8722 506.893Z" fill="#2F2E41"/>
<path d="M9.00161 318.952C9.00161 318.952 2.19148 325.798 13.468 352.482L11.4817 498.796L48.0254 498.162L56.0581 426.791L70.6832 322.641L9.00161 318.952Z" fill="#2F2E41"/>
<path d="M83.2166 339.181L82.8165 339.127C36.0671 332.787 0.78913 326.709 0.438239 326.648L0 326.572L12.255 300.067C12.1582 297.297 9.50542 219.521 14.5837 197.176C19.4998 175.544 42.6726 171.998 45.3132 171.665L47.9647 163.853L81.463 179.353L87.3053 197.233L88.492 246.238L83.2166 339.181Z" fill="#3F3D56"/>
<path d="M103.392 238.318C101.884 238.318 100.391 238.595 99.0093 239.132C97.6272 239.67 96.3852 240.456 95.3613 241.441H39.0563L18.4321 245.345L21.8182 268.569L95.1845 254.539C96.3991 255.758 97.9381 256.688 99.6608 257.243C101.384 257.798 103.235 257.961 105.047 257.715C106.858 257.47 108.572 256.826 110.031 255.84C111.49 254.855 112.648 253.56 113.4 252.075C114.152 250.589 114.473 248.959 114.335 247.334C114.196 245.71 113.602 244.142 112.607 242.774C111.612 241.406 110.247 240.281 108.637 239.503C107.028 238.725 105.224 238.317 103.392 238.318H103.392Z" fill="#9F616A"/>
<path d="M103.881 155.073C111.069 143.38 106.236 128.718 93.086 122.326C79.9358 115.934 63.448 120.231 56.2594 131.925C49.0709 143.619 53.9038 158.28 67.054 164.672C80.2042 171.065 96.692 166.767 103.881 155.073Z" fill="#9F616A"/>
<path d="M54.5482 124.208L53.2327 121.854L59.8521 118.929C59.8521 118.929 67.1544 108.364 80.3683 111.333C93.5821 114.302 99.5272 116.079 99.5272 116.079L106.13 119.033L102.816 121.965L108.761 123.742L104.789 125.497L109.41 127.859L106.923 139.967C106.923 139.967 102.791 130.783 94.8477 134.293C86.9044 137.802 72.3749 132.479 72.3749 132.479L59.752 154.202C59.752 154.202 57.1479 146.587 52.5049 148.617C52.5048 148.617 40.6432 131.82 54.5482 124.208Z" fill="#2F2E41"/>
<path d="M22.1787 272.923L15.7398 255.891L14.1823 199.117L16.9258 191.062C17.9133 188.163 19.5488 185.47 21.7344 183.147C23.92 180.823 26.6106 178.916 29.6451 177.539C32.6795 176.162 35.9953 175.344 39.3938 175.134C42.7922 174.924 46.2033 175.327 49.4227 176.317C52.6421 177.308 55.6035 178.866 58.1294 180.898C60.6554 182.931 62.6939 185.396 64.1227 188.146C65.5516 190.896 66.3414 193.874 66.4449 196.902C66.5483 199.93 65.9633 202.945 64.7248 205.767L50.0199 239.275L50.7674 240.565L82.6258 240.336L93.9423 258.45L22.1787 272.923Z" fill="#3F3D56"/>
<path d="M340.928 265.924C342.116 265.212 343.115 264.277 343.854 263.185C344.592 262.092 345.052 260.869 345.202 259.601C345.351 258.333 345.186 257.052 344.718 255.847C344.25 254.642 343.491 253.543 342.494 252.627L358.198 224.967L340.211 226.822L328.056 252.804C326.437 254.396 325.531 256.46 325.509 258.607C325.487 260.753 326.352 262.831 327.938 264.448C329.525 266.065 331.724 267.109 334.118 267.381C336.511 267.653 338.935 267.135 340.928 265.924Z" fill="#FFB7B7"/>
<path d="M466.868 461.856L452.715 461.855L445.983 413.313L466.87 413.315L466.868 461.856Z" fill="#FFB7B7"/>
<path d="M470.477 474.055L424.844 474.053V473.54C424.844 469.351 426.715 465.334 430.046 462.372C433.377 459.41 437.895 457.746 442.605 457.746H442.607L470.478 457.747L470.477 474.055Z" fill="#2F2E41"/>
<path d="M389.525 461.856L375.372 461.855L368.639 413.313L389.528 413.315L389.525 461.856Z" fill="#FFB7B7"/>
<path d="M389.671 474.055L344.038 474.053V473.54C344.038 469.351 345.909 465.334 349.24 462.372C352.571 459.41 357.089 457.746 361.799 457.746H361.801L389.672 457.747L389.671 474.055Z" fill="#2F2E41"/>
<path d="M388.365 256.84L374.513 285.218L363.086 448.33L391.945 447.304L399.827 369.547L424.142 300.293L438.12 377.5L443.892 445.25L467.772 446.17L477.288 256.84H388.365Z" fill="#2F2E41"/>
<path d="M457.609 116.808L417.46 117.701L393.889 128.461L392.595 207.849L377.894 262.659C377.894 262.659 469.748 268.281 482.447 260.069L467.44 197.452L487.567 129.781L457.609 116.808Z" fill="#E5E5E5"/>
<path d="M400.089 129.777L396.351 127.533C396.351 127.533 380.867 131.66 376.29 150.02C376.29 150.02 372.788 159.231 371.251 165.564C369.489 172.828 330.569 239.551 330.569 239.551L353.871 245.495L396.591 184.06L400.089 129.777Z" fill="#E5E5E5"/>
<path d="M486.938 276.104C486.016 275.128 485.346 273.984 484.975 272.753C484.604 271.522 484.541 270.233 484.791 268.978C485.04 267.723 485.596 266.532 486.42 265.488C487.243 264.445 488.314 263.574 489.556 262.939L483.039 232.5L499.753 238.694L503.379 266.649C504.442 268.576 504.673 270.783 504.028 272.851C503.383 274.919 501.908 276.705 499.882 277.871C497.855 279.036 495.418 279.5 493.033 279.174C490.647 278.849 488.479 277.757 486.938 276.104Z" fill="#FFB7B7"/>
<path d="M481.526 130.729L485.815 129.488C485.815 129.488 499.419 137.252 498.125 156.022C498.125 156.022 498.634 165.735 498.148 172.2C497.589 179.614 505.074 253.293 505.074 253.293H480.832L470.443 186.571L481.526 130.729Z" fill="#E5E5E5"/>
<path d="M467.465 83.5016C467.465 88.3965 465.833 93.1815 462.775 97.2515C459.716 101.321 455.37 104.494 450.284 106.367C445.198 108.24 439.602 108.73 434.203 107.775C428.805 106.82 423.845 104.463 419.953 101.002C416.061 97.5407 413.41 93.1308 412.336 88.33C411.262 83.5291 411.813 78.5529 413.92 74.0306C416.026 69.5083 419.594 65.643 424.171 62.9236C428.748 60.2041 434.129 58.7526 439.633 58.7526C446.996 58.7362 454.065 61.3215 459.285 65.9398C464.504 70.558 467.447 76.8308 467.465 83.3783C467.465 83.4194 467.465 83.4605 467.465 83.5016Z" fill="#FFB7B7"/>
<path d="M411.894 50.2592C415.154 44.0249 421.464 45.2574 426.982 47.3707C433.969 45.9924 440.615 41.866 448.144 44.3063C455.56 53.8981 480.46 51.076 475.163 66.6915C475.156 70.4333 483.081 68.2553 481.697 74.3836C485.895 86.1772 466.544 108.513 455.435 103.809C458.182 99.3316 464.458 89.1615 454.939 88.1527C434.462 105.096 452.826 55.8892 427.097 70.1993C418.578 77.1322 406.915 57.1938 411.894 50.2592Z" fill="#2F2E41"/>
<path d="M491.81 278.572C493.136 278.809 494.504 278.785 495.818 278.501C497.132 278.217 498.36 277.68 499.415 276.929C500.47 276.177 501.328 275.229 501.926 274.151C502.525 273.073 502.851 271.891 502.88 270.689L572.764 212.199L557.04 201.045L493.172 262.194C490.898 262.284 488.74 263.112 487.106 264.522C485.473 265.932 484.478 267.826 484.31 269.845C484.142 271.864 484.813 273.868 486.196 275.476C487.578 277.085 489.576 278.186 491.81 278.572Z" fill="#9F616A"/>
<path d="M562.861 221.653L549.266 207.485C548.879 207.081 548.594 206.609 548.431 206.099C548.268 205.589 548.231 205.054 548.321 204.531C548.412 204.007 548.628 203.507 548.956 203.064C549.283 202.621 549.714 202.246 550.22 201.965L567.919 192.112C570.25 190.364 573.265 189.508 576.304 189.734C579.343 189.959 582.157 191.247 584.13 193.315C586.102 195.383 587.072 198.062 586.827 200.765C586.581 203.468 585.14 205.973 582.82 207.733L569.141 221.684C568.749 222.083 568.265 222.403 567.722 222.621C567.179 222.839 566.589 222.95 565.993 222.947C565.397 222.944 564.809 222.827 564.269 222.604C563.728 222.38 563.248 222.056 562.861 221.653V221.653Z" fill="#CBCBCB"/>
<path d="M526.301 510.272L509.215 510.271L501.086 451.667L526.304 451.668L526.301 510.272Z" fill="#9F616A"/>
<path d="M530.658 525L475.565 524.998V524.379C475.565 519.321 477.824 514.471 481.846 510.895C485.867 507.319 491.321 505.31 497.009 505.31H497.01L530.659 505.311L530.658 525Z" fill="#2F2E41"/>
<path d="M662.883 510.272L645.797 510.271L637.668 451.667L662.886 451.668L662.883 510.272Z" fill="#9F616A"/>
<path d="M667.241 525L612.147 524.998V524.379C612.147 519.321 614.407 514.471 618.428 510.895C622.449 507.319 627.904 505.31 633.591 505.31H633.592L667.242 505.311L667.241 525Z" fill="#2F2E41"/>
<path d="M616.923 252.719L634.146 196.134L611.803 184.966H580.615L568.485 196.506C568.485 196.506 548.218 209.045 553.124 222.937L561.037 254.58L548.934 304.836L487.955 380.034L473.521 453.898L530.342 467.144L591.787 359.559L621.578 478.685L677 476.206L657.902 331.766C657.902 331.766 652.458 287.765 623.922 260.291L616.923 252.719Z" fill="#2F2E41"/>
<path d="M652.492 302.784C653.452 301.938 654.192 300.915 654.66 299.786C655.128 298.658 655.312 297.453 655.199 296.254C655.086 295.056 654.679 293.895 654.006 292.851C653.334 291.808 652.412 290.909 651.307 290.217L637.943 210.048L618.763 215.434L637.963 292.645C636.778 294.373 636.348 296.428 636.753 298.42C637.159 300.412 638.372 302.203 640.163 303.453C641.954 304.703 644.198 305.325 646.47 305.202C648.742 305.078 650.885 304.218 652.492 302.784Z" fill="#9F616A"/>
<path d="M641.246 222.63L620.438 224.764C619.846 224.824 619.247 224.771 618.68 224.607C618.113 224.443 617.593 224.172 617.154 223.813C616.716 223.454 616.37 223.016 616.139 222.527C615.909 222.038 615.799 221.511 615.818 220.981L616.492 202.422C616.161 199.727 617.044 197.025 618.949 194.908C620.854 192.791 623.626 191.432 626.656 191.13C629.686 190.827 632.727 191.605 635.113 193.293C637.499 194.981 639.035 197.442 639.383 200.136L644.777 218.012C644.931 218.524 644.96 219.06 644.86 219.582C644.761 220.105 644.536 220.602 644.201 221.04C643.866 221.478 643.428 221.847 642.918 222.122C642.408 222.396 641.838 222.57 641.246 222.63V222.63Z" fill="#CBCBCB"/>
<path d="M561.332 168.874V145.033C561.332 136.56 565.117 128.434 571.855 122.443C578.592 116.451 587.73 113.085 597.259 113.085C606.787 113.085 615.925 116.451 622.663 122.443C629.401 128.434 633.186 136.56 633.186 145.033V168.874C633.184 170.012 632.675 171.103 631.771 171.907C630.866 172.712 629.639 173.165 628.36 173.166H566.158C564.878 173.165 563.652 172.712 562.747 171.907C561.842 171.103 561.333 170.012 561.332 168.874Z" fill="#2F2E41"/>
<path d="M602.511 169.741C615.275 163.536 619.966 149.304 612.989 137.953C606.011 126.602 590.006 122.431 577.242 128.636C564.477 134.841 559.786 149.072 566.764 160.423C573.741 171.774 589.746 175.945 602.511 169.741Z" fill="#9F616A"/>
<path d="M552.832 146.94C552.841 140.24 555.838 133.816 561.166 129.079C566.494 124.341 573.717 121.676 581.252 121.668H586.615C594.149 121.676 601.373 124.341 606.701 129.079C612.029 133.817 615.026 140.24 615.034 146.94V147.417H603.702L599.837 137.793L599.064 147.417H593.207L591.257 142.561L590.867 147.417H552.832V146.94Z" fill="#2F2E41"/>
<path d="M587.284 175.847C586.752 175.206 586.434 174.445 586.367 173.651C586.3 172.857 586.487 172.062 586.906 171.358C592.588 161.747 600.545 143.988 589.984 133.036L589.225 132.249H619.884V173.18L592.033 177.549C591.751 177.594 591.465 177.616 591.179 177.616C590.418 177.616 589.669 177.456 588.992 177.148C588.315 176.841 587.729 176.395 587.284 175.847Z" fill="#2F2E41"/>
<path d="M305.491 197.642C305.102 197.998 304.746 198.38 304.425 198.785L254.471 197.698L248.643 188.229L231.423 194.182L239.907 211.837C240.593 213.263 241.78 214.453 243.291 215.229C244.802 216.004 246.554 216.322 248.286 216.136L304.724 210.074C306.056 211.572 307.869 212.675 309.922 213.235C311.975 213.795 314.172 213.786 316.219 213.209C318.267 212.633 320.068 211.515 321.384 210.005C322.699 208.496 323.467 206.666 323.585 204.759C323.702 202.852 323.164 200.958 322.042 199.33C320.92 197.701 319.267 196.415 317.302 195.643C315.338 194.87 313.156 194.648 311.046 195.005C308.936 195.362 306.999 196.282 305.491 197.642H305.491Z" fill="#FFB7B7"/>
<path d="M142.65 467.411H159.075L166.888 411.075L142.647 411.076L142.65 467.411Z" fill="#FFB7B7"/>
<path d="M138.46 462.643L170.807 462.642H170.808C176.275 462.642 181.518 464.573 185.384 468.011C189.25 471.449 191.422 476.111 191.422 480.972V481.568L138.461 481.57L138.46 462.643Z" fill="#2F2E41"/>
<path d="M291.795 467.087L306.9 461.349L289.198 406.811L266.906 415.28L291.795 467.087Z" fill="#FFB7B7"/>
<path d="M285.836 464.165L315.582 452.865L315.583 452.864C320.611 450.955 326.285 450.899 331.359 452.71C336.432 454.521 340.489 458.05 342.637 462.52L342.9 463.068L294.197 481.57L285.836 464.165Z" fill="#2F2E41"/>
<path d="M222.487 209.846L223.674 226.961L188.957 230.265L152.628 233.722L163.321 207.733L222.487 209.846Z" fill="#FFB7B7"/>
<path d="M223.706 215.987C223.313 215.85 184.099 202.286 160.012 213.377L159.42 213.65L154.614 192.618L151.876 147.4L169.693 139.914L174.598 130.143L208.012 128.384L214.878 136.758L238.255 143.571L224.284 216.19L223.706 215.987Z" fill="#E4E4E4"/>
<path d="M224.934 175.172L229.067 146.296L238.478 143.749L238.636 143.801C238.854 143.872 243.968 145.613 245.368 151.909C246.712 157.952 256.832 195.56 256.934 195.939L257.036 196.315L233.257 204.775L224.934 175.172Z" fill="#E4E4E4"/>
<path d="M279.562 457.186L311.215 451.412L260.624 327.276L243.309 284.935C243.309 284.935 232.328 250.987 227.366 237.849L224.372 220.221L153.49 227.198C153.49 227.198 133.693 253.051 139.707 295.191L136.987 453.577L168.641 455.02L195.153 295.28L241.686 382.849C241.686 382.849 256.353 420.217 266.846 428.317L279.562 457.186Z" fill="#2F2E41"/>
<path d="M181.915 233.077C181.358 233.065 180.8 233.092 180.248 233.159L147.18 199.846L151.027 189.608L134.409 182.426L125.619 199.963C124.909 201.379 124.735 202.963 125.123 204.475C125.51 205.987 126.44 207.347 127.77 208.349L171.143 241.029C170.812 242.916 171.135 244.848 172.069 246.568C173.003 248.288 174.504 249.714 176.372 250.657C178.24 251.599 180.386 252.014 182.526 251.846C184.665 251.677 186.696 250.934 188.349 249.714C190.001 248.494 191.197 246.856 191.777 245.017C192.357 243.178 192.293 241.225 191.595 239.419C190.896 237.613 189.596 236.039 187.867 234.906C186.138 233.773 184.062 233.135 181.915 233.077Z" fill="#FFB7B7"/>
<path d="M131.416 187.361L144.343 154.618C145.796 150.758 147.617 148.413 149.754 147.648C150.176 147.479 150.631 147.39 151.093 147.386C151.555 147.383 152.013 147.464 152.437 147.625L158.234 154.138L163.614 174.235L149.82 203.088L131.416 187.361Z" fill="#E4E4E4"/>
<path d="M216.983 121.609H160.232C159.064 121.607 157.945 121.194 157.12 120.46C156.294 119.726 155.83 118.731 155.829 117.693V95.9408C155.829 88.2103 159.282 80.7963 165.429 75.33C171.577 69.8637 179.914 66.7927 188.608 66.7927C197.301 66.7927 205.638 69.8637 211.786 75.33C217.933 80.7963 221.386 88.2103 221.386 95.9408V117.693C221.385 118.731 220.921 119.726 220.095 120.46C219.27 121.194 218.151 121.607 216.983 121.609Z" fill="#2F2E41"/>
<path d="M195.343 121.102C208.616 121.102 219.376 111.534 219.376 99.7318C219.376 87.9293 208.616 78.3615 195.343 78.3615C182.071 78.3615 171.311 87.9293 171.311 99.7318C171.311 111.534 182.071 121.102 195.343 121.102Z" fill="#FFB7B7"/>
<path d="M229.141 98.1161H194.439L194.083 93.6858L192.304 98.1161H186.96L186.255 89.3353L182.729 98.1161H172.39V97.681C172.397 91.568 175.132 85.7072 179.993 81.3846C184.854 77.062 191.444 74.6305 198.319 74.6236H203.212C210.086 74.6305 216.677 77.062 221.538 81.3846C226.399 85.7072 229.133 91.5679 229.141 97.681L229.141 98.1161Z" fill="#2F2E41"/>
<path d="M194.155 125.669C193.894 125.669 193.633 125.648 193.376 125.608L167.965 121.621V84.2768H195.937L195.245 84.9948C185.61 94.9873 192.869 111.19 198.053 119.959C198.435 120.601 198.606 121.326 198.545 122.051C198.484 122.776 198.194 123.47 197.708 124.055C197.302 124.555 196.768 124.961 196.15 125.242C195.532 125.523 194.849 125.669 194.155 125.669Z" fill="#2F2E41"/>
<path d="M498.543 215.433C496.959 215.575 495.365 215.608 493.776 215.532C493.505 215.506 493.233 215.575 493.019 215.725C492.805 215.875 492.666 216.094 492.631 216.335L489.59 236.618C489.356 238.091 488.678 239.479 487.628 240.637C486.763 241.558 486.119 242.627 485.738 243.779C485.357 244.93 485.245 246.139 485.411 247.33V281.786C485.411 281.786 485.215 286.38 489.185 286.38C493.936 286.911 498.743 286.911 503.494 286.38C503.494 286.38 506.672 285.845 506.672 281.606V247.679C506.915 246.495 506.865 245.279 506.526 244.114C506.187 242.949 505.568 241.864 504.71 240.933C503.695 239.772 503.039 238.395 502.807 236.938L499.648 216.23C499.612 215.997 499.478 215.785 499.273 215.637C499.068 215.489 498.807 215.416 498.543 215.433Z" fill="white"/>
<path d="M496.325 287.359C493.924 287.359 491.525 287.226 489.143 286.961C488.61 286.973 488.081 286.886 487.588 286.706C487.095 286.527 486.65 286.259 486.279 285.919C484.663 284.427 484.753 281.872 484.758 281.764L484.757 247.366C484.589 246.101 484.712 244.819 485.119 243.598C485.527 242.377 486.21 241.242 487.126 240.264C488.099 239.19 488.726 237.902 488.943 236.537L491.983 216.258C492.042 215.868 492.27 215.513 492.618 215.27C492.966 215.027 493.406 214.913 493.847 214.954C495.391 215.026 496.939 214.993 498.478 214.855L498.496 214.853C498.925 214.826 499.35 214.944 499.685 215.185C500.019 215.426 500.238 215.772 500.296 216.151L503.455 236.86C503.672 238.215 504.283 239.496 505.226 240.576C506.135 241.564 506.793 242.715 507.156 243.949C507.518 245.184 507.576 246.474 507.326 247.731V281.606C507.326 286.273 503.652 286.945 503.615 286.952C501.197 287.223 498.762 287.359 496.325 287.359ZM493.687 216.11C493.59 216.106 493.494 216.134 493.419 216.189C493.344 216.244 493.294 216.322 493.28 216.408L490.238 236.695C489.988 238.273 489.262 239.762 488.137 241.002C487.329 241.863 486.727 242.863 486.37 243.939C486.013 245.015 485.907 246.145 486.06 247.259L486.065 247.33V281.786C486.064 281.829 485.995 283.983 487.224 285.115C487.478 285.345 487.785 285.525 488.122 285.643C488.46 285.761 488.822 285.814 489.185 285.799L489.266 285.803C493.963 286.327 498.715 286.327 503.412 285.803C503.474 285.79 506.018 285.274 506.018 281.606L506.029 247.575C506.255 246.474 506.209 245.343 505.894 244.26C505.579 243.176 505.002 242.167 504.204 241.302C503.115 240.057 502.41 238.581 502.16 237.02L499 216.308C498.986 216.223 498.937 216.146 498.863 216.091C498.788 216.037 498.694 216.009 498.597 216.013C496.984 216.156 495.36 216.19 493.741 216.113C493.723 216.111 493.705 216.11 493.687 216.11Z" fill="#3F3D56"/>
<path d="M493.743 247.947H498.563C500.479 247.947 502.317 248.624 503.673 249.829C505.028 251.034 505.789 252.668 505.789 254.373V270.498C505.789 272.203 505.028 273.837 503.672 275.042C502.317 276.247 500.479 276.924 498.563 276.924H493.743C491.826 276.924 489.988 276.247 488.633 275.042C487.278 273.837 486.517 272.203 486.517 270.498V254.373C486.517 252.668 487.278 251.034 488.633 249.829C489.988 248.624 491.826 247.947 493.743 247.947Z" fill="#E5E5E5"/>
<path d="M334.986 187.496C333.402 187.637 331.808 187.67 330.218 187.594C329.948 187.568 329.676 187.637 329.462 187.787C329.248 187.938 329.108 188.156 329.074 188.397L326.033 208.681C325.799 210.153 325.121 211.542 324.071 212.699C323.206 213.62 322.562 214.69 322.181 215.841C321.799 216.992 321.688 218.201 321.854 219.393V253.848C321.854 253.848 321.658 258.442 325.628 258.442C330.379 258.973 335.186 258.973 339.936 258.442C339.936 258.442 343.115 257.907 343.115 253.668V219.741C343.357 218.558 343.307 217.341 342.969 216.177C342.63 215.012 342.01 213.926 341.153 212.996C340.138 211.834 339.482 210.457 339.25 209.001L336.091 188.292C336.055 188.059 335.921 187.847 335.716 187.699C335.51 187.551 335.249 187.479 334.986 187.496Z" fill="white"/>
<path d="M332.768 259.421C330.367 259.421 327.968 259.288 325.585 259.024C325.053 259.035 324.524 258.948 324.031 258.769C323.538 258.589 323.092 258.321 322.722 257.981C321.106 256.489 321.196 253.934 321.201 253.826L321.2 219.428C321.032 218.163 321.155 216.881 321.562 215.66C321.969 214.439 322.652 213.305 323.569 212.326C324.541 211.252 325.169 209.965 325.385 208.599L328.426 188.32C328.485 187.93 328.713 187.576 329.061 187.332C329.408 187.089 329.849 186.976 330.289 187.016C331.834 187.089 333.382 187.056 334.92 186.917L334.939 186.916C335.368 186.888 335.793 187.007 336.128 187.248C336.462 187.489 336.681 187.834 336.739 188.213L339.898 208.923C340.115 210.277 340.725 211.558 341.669 212.639C342.578 213.626 343.236 214.777 343.599 216.012C343.961 217.247 344.019 218.536 343.769 219.793V253.668C343.769 258.335 340.095 259.008 340.058 259.014C337.64 259.285 335.205 259.421 332.768 259.421ZM330.13 188.173C330.032 188.168 329.937 188.197 329.862 188.252C329.786 188.307 329.737 188.385 329.723 188.47L326.681 208.758C326.431 210.336 325.705 211.824 324.58 213.064C323.771 213.926 323.17 214.925 322.813 216.001C322.456 217.077 322.35 218.207 322.503 219.321L322.508 219.392V253.848C322.507 253.891 322.437 256.046 323.667 257.177C323.921 257.408 324.227 257.587 324.565 257.705C324.903 257.823 325.265 257.876 325.628 257.861L325.709 257.865C330.406 258.39 335.158 258.39 339.855 257.865C339.917 257.852 342.461 257.336 342.461 253.668L342.471 219.637C342.698 218.536 342.652 217.405 342.337 216.322C342.022 215.239 341.445 214.229 340.647 213.364C339.557 212.12 338.853 210.643 338.602 209.082L335.443 188.37C335.429 188.285 335.38 188.208 335.306 188.153C335.231 188.099 335.136 188.071 335.04 188.075C333.426 188.219 331.803 188.252 330.183 188.175C330.165 188.173 330.148 188.173 330.13 188.173Z" fill="#3F3D56"/>
<path d="M330.186 220.009H335.005C336.922 220.009 338.76 220.686 340.115 221.891C341.47 223.096 342.232 224.731 342.232 226.435V242.561C342.232 244.265 341.47 245.899 340.115 247.105C338.76 248.31 336.922 248.987 335.005 248.987H330.186C328.269 248.987 326.431 248.31 325.076 247.105C323.721 245.899 322.959 244.265 322.959 242.561V226.435C322.959 224.731 323.721 223.096 325.076 221.891C326.431 220.686 328.269 220.009 330.186 220.009Z" fill="#E5E5E5"/>
<path d="M307.264 157.914C305.68 158.056 304.087 158.089 302.497 158.013C302.226 157.987 301.954 158.056 301.74 158.206C301.526 158.356 301.387 158.575 301.352 158.816L298.312 179.1C298.078 180.572 297.4 181.961 296.35 183.118C295.484 184.039 294.841 185.108 294.459 186.26C294.078 187.411 293.967 188.62 294.133 189.811V224.267C294.133 224.267 293.936 228.861 297.906 228.861C302.657 229.392 307.464 229.392 312.215 228.861C312.215 228.861 315.393 228.326 315.393 224.087V190.16C315.636 188.977 315.586 187.76 315.247 186.595C314.908 185.431 314.289 184.345 313.431 183.415C312.416 182.253 311.76 180.876 311.528 179.419L308.37 158.711C308.334 158.478 308.2 158.266 307.994 158.118C307.789 157.97 307.528 157.897 307.264 157.914Z" fill="white"/>
<path d="M305.047 229.84C302.645 229.84 300.247 229.707 297.864 229.443C297.332 229.454 296.802 229.367 296.31 229.188C295.817 229.008 295.371 228.74 295 228.4C293.385 226.908 293.475 224.353 293.479 224.245L293.479 189.847C293.31 188.582 293.433 187.3 293.841 186.079C294.248 184.858 294.931 183.724 295.848 182.745C296.82 181.671 297.447 180.383 297.664 179.018L300.704 158.739C300.764 158.349 300.991 157.995 301.339 157.751C301.687 157.508 302.128 157.395 302.568 157.435C304.112 157.508 305.661 157.474 307.199 157.336L307.217 157.334C307.647 157.307 308.072 157.425 308.406 157.666C308.741 157.908 308.959 158.253 309.018 158.632L312.176 179.341C312.394 180.696 313.004 181.977 313.948 183.058C314.857 184.045 315.515 185.196 315.877 186.431C316.24 187.665 316.298 188.955 316.047 190.212V224.087C316.047 228.754 312.374 229.426 312.337 229.433C309.919 229.704 307.484 229.84 305.047 229.84ZM302.408 158.591C302.311 158.587 302.215 158.615 302.14 158.67C302.065 158.725 302.015 158.803 302.001 158.889L298.96 179.176C298.71 180.754 297.984 182.243 296.859 183.483C296.05 184.344 295.449 185.344 295.091 186.42C294.734 187.496 294.629 188.626 294.782 189.74L294.787 189.811V224.267C294.785 224.31 294.716 226.465 295.945 227.596C296.2 227.827 296.506 228.006 296.844 228.124C297.182 228.242 297.544 228.295 297.906 228.28L297.988 228.284C302.684 228.809 307.437 228.809 312.133 228.284C312.195 228.271 314.739 227.755 314.739 224.087L314.75 190.056C314.976 188.955 314.93 187.824 314.615 186.741C314.3 185.657 313.724 184.648 312.925 183.783C311.836 182.538 311.131 181.062 310.881 179.501L307.722 158.789C307.708 158.704 307.659 158.627 307.584 158.572C307.51 158.518 307.415 158.49 307.318 158.494C305.705 158.638 304.081 158.671 302.462 158.594C302.444 158.592 302.426 158.591 302.408 158.591Z" fill="#3F3D56"/>
<path d="M302.464 190.428H307.284C309.2 190.428 311.038 191.105 312.394 192.31C313.749 193.515 314.51 195.149 314.51 196.854V212.98C314.51 214.684 313.749 216.318 312.394 217.523C311.038 218.729 309.2 219.406 307.284 219.406H302.464C300.548 219.406 298.71 218.729 297.354 217.523C295.999 216.318 295.238 214.684 295.238 212.98V196.854C295.238 195.149 295.999 193.515 297.354 192.31C298.71 191.105 300.548 190.428 302.464 190.428Z" fill="#E5E5E5"/>
<path d="M51.9201 58.3405C64.6786 58.3405 75.0214 49.1434 75.0214 37.7981C75.0214 26.4528 64.6786 17.2556 51.9201 17.2556C39.1617 17.2556 28.8188 26.4528 28.8188 37.7981C28.8188 49.1434 39.1617 58.3405 51.9201 58.3405Z" fill="#F0F0F0"/>
<path d="M584.174 41.0849C596.933 41.0849 607.275 31.8877 607.275 20.5424C607.275 9.19717 596.933 0 584.174 0C571.416 0 561.073 9.19717 561.073 20.5424C561.073 31.8877 571.416 41.0849 584.174 41.0849Z" fill="#F0F0F0"/>
<path d="M319.895 92.8518C329.081 92.8518 336.528 86.2299 336.528 78.0613C336.528 69.8927 329.081 63.2707 319.895 63.2707C310.709 63.2707 303.262 69.8927 303.262 78.0613C303.262 86.2299 310.709 92.8518 319.895 92.8518Z" fill="#F0F0F0"/>
</g>
<defs>
<clipPath id="clip0_34_246">
<rect width="677" height="525" fill="white"/>
</clipPath>
</defs>
</svg>
