<svg width="130" height="129" viewBox="0 0 130 129" fill="none" xmlns="http://www.w3.org/2000/svg">
<circle cx="65" cy="64.5" r="64.5" fill="#E5E5E5"/>
<path d="M74.132 62.0879L62.9425 54.6259C62.4149 54.2739 61.8016 54.0718 61.1681 54.0414C60.5346 54.0109 59.9047 54.1532 59.3457 54.453C58.7868 54.7527 58.3198 55.1988 57.9947 55.7434C57.6696 56.2879 57.4986 56.9106 57.5 57.5449V72.4654C57.4999 73.099 57.6718 73.7208 57.9974 74.2644C58.3231 74.808 58.7901 75.253 59.3488 75.5519C59.9075 75.8509 60.5369 75.9925 61.1698 75.9618C61.8027 75.931 62.4154 75.7291 62.9425 75.3774L74.132 67.9154C74.6114 67.5958 75.0044 67.1627 75.2762 66.6547C75.5481 66.1468 75.6903 65.5795 75.6903 65.0034C75.6903 64.4272 75.5481 63.86 75.2762 63.352C75.0044 62.844 74.6114 62.411 74.132 62.0914V62.0879Z" stroke="white" stroke-width="2" stroke-linecap="round" stroke-linejoin="round"/>
<path d="M96 65C96 69.1366 95.1852 73.2328 93.6022 77.0545C92.0192 80.8763 89.6989 84.3488 86.7739 87.2739C83.8488 90.1989 80.3763 92.5192 76.5545 94.1022C72.7328 95.6852 68.6366 96.5 64.5 96.5C60.3634 96.5 56.2672 95.6852 52.4455 94.1022C48.6237 92.5192 45.1512 90.1989 42.2261 87.2739C39.3011 84.3488 36.9808 80.8763 35.3978 77.0545C33.8148 73.2328 33 69.1366 33 65C33 56.6457 36.3187 48.6335 42.2261 42.7261C48.1335 36.8187 56.1457 33.5 64.5 33.5C72.8543 33.5 80.8665 36.8187 86.7739 42.7261C92.6813 48.6335 96 56.6457 96 65Z" stroke="white" stroke-width="2" stroke-linecap="round" stroke-linejoin="round"/>
</svg>
