<svg viewBox="0 0 50 50" fill="none" xmlns="http://www.w3.org/2000/svg">
<circle cx="25" cy="25" r="25" fill="#E5E5E5"/>
<path d="M28.1965 23.8054L23.9338 20.9627C23.7329 20.8286 23.4992 20.7517 23.2579 20.7401C23.0165 20.7285 22.7766 20.7827 22.5636 20.8969C22.3507 21.0111 22.1728 21.181 22.049 21.3884C21.9251 21.5959 21.86 21.8331 21.8605 22.0747V27.7587C21.8605 28.0001 21.926 28.237 22.05 28.4441C22.174 28.6512 22.352 28.8207 22.5648 28.9346C22.7777 29.0484 23.0174 29.1024 23.2585 29.0907C23.4996 29.079 23.733 29.002 23.9338 28.8681L28.1965 26.0254C28.3791 25.9036 28.5288 25.7387 28.6324 25.5451C28.736 25.3516 28.7901 25.1355 28.7901 24.9161C28.7901 24.6966 28.736 24.4805 28.6324 24.287C28.5288 24.0935 28.3791 23.9285 28.1965 23.8067V23.8054Z" stroke="#464343" stroke-width="2" stroke-linecap="round" stroke-linejoin="round"/>
<path d="M36.5272 24.9148C36.5272 26.4907 36.2168 28.0511 35.6137 29.507C35.0107 30.9629 34.1267 32.2858 33.0124 33.4001C31.8981 34.5144 30.5753 35.3983 29.1194 36.0014C27.6635 36.6044 26.103 36.9148 24.5272 36.9148C22.9513 36.9148 21.3909 36.6044 19.935 36.0014C18.4791 35.3983 17.1562 34.5144 16.0419 33.4001C14.9276 32.2858 14.0437 30.9629 13.4406 29.507C12.8375 28.0511 12.5272 26.4907 12.5272 24.9148C12.5272 21.7322 13.7914 18.68 16.0419 16.4295C18.2923 14.1791 21.3446 12.9148 24.5272 12.9148C27.7098 12.9148 30.762 14.1791 33.0124 16.4295C35.2629 18.68 36.5272 21.7322 36.5272 24.9148Z" stroke="#464343" stroke-width="2" stroke-linecap="round" stroke-linejoin="round"/>
</svg>
