<svg width="467" height="460" viewBox="0 0 467 460" fill="none" xmlns="http://www.w3.org/2000/svg">
<g clip-path="url(#clip0_46_1921)">
<path d="M68.2405 293.448C105.929 293.448 136.481 262.87 136.481 225.151C136.481 187.431 105.929 156.854 68.2405 156.854C30.5523 156.854 0 187.431 0 225.151C0 262.87 30.5523 293.448 68.2405 293.448Z" fill="#F2F2F2"/>
<path d="M68.8502 227.998C83.879 227.998 96.0623 215.805 96.0623 200.763C96.0623 185.722 83.879 173.529 68.8502 173.529C53.8214 173.529 41.6381 185.722 41.6381 200.763C41.6381 215.805 53.8214 227.998 68.8502 227.998Z" fill="#2F2E41"/>
<path d="M136.85 68.4182C136.826 81.926 132.8 95.1234 125.282 106.341C117.764 117.56 107.091 126.294 94.6122 131.442C82.1338 136.589 68.4105 137.917 55.1778 135.258C41.9452 132.599 29.7974 126.073 20.2708 116.505C10.7441 106.936 4.26637 94.7553 1.65677 81.5023C-0.952828 68.2494 0.42289 54.5195 5.60995 42.0491C10.797 29.5786 19.5624 18.9276 30.7978 11.4429C42.0332 3.95829 55.2339 -0.0238412 68.7305 0.000107388C77.6986 -0.00727068 86.5797 1.75915 94.8634 5.19785C103.147 8.63655 110.67 13.6797 117 20.0376C123.33 26.3955 128.343 33.9426 131.749 42.2454C135.156 50.5481 136.889 59.4428 136.85 68.4182Z" fill="#F2F2F2"/>
<path d="M230.173 293.448C267.862 293.448 298.414 262.87 298.414 225.151C298.414 187.431 267.862 156.854 230.173 156.854C192.485 156.854 161.933 187.431 161.933 225.151C161.933 262.87 192.485 293.448 230.173 293.448Z" fill="#F2F2F2"/>
<path d="M229.975 136.594C267.663 136.594 298.215 106.016 298.215 68.2971C298.215 30.5776 267.663 0 229.975 0C192.287 0 161.734 30.5776 161.734 68.2971C161.734 106.016 192.287 136.594 229.975 136.594Z" fill="#F2F2F2"/>
<path d="M396.293 136.594C433.981 136.594 464.534 106.016 464.534 68.2971C464.534 30.5776 433.981 0 396.293 0C358.605 0 328.053 30.5776 328.053 68.2971C328.053 106.016 358.605 136.594 396.293 136.594Z" fill="#F2F2F2"/>
<path d="M398.759 293.448C436.448 293.448 467 262.87 467 225.151C467 187.431 436.448 156.854 398.759 156.854C361.071 156.854 330.519 187.431 330.519 225.151C330.519 262.87 361.071 293.448 398.759 293.448Z" fill="#F2F2F2"/>
<path d="M136.851 391.702C136.851 405.21 132.849 418.415 125.35 429.646C117.852 440.878 107.194 449.632 94.7249 454.801C82.2556 459.97 68.5347 461.322 55.2973 458.687C42.0599 456.052 29.9006 449.547 20.357 439.996C10.8134 430.444 4.31414 418.275 1.68106 405.027C-0.952012 391.778 0.399385 378.046 5.56435 365.566C10.7293 353.087 19.4759 342.42 30.698 334.916C41.9201 327.411 55.1137 323.405 68.6104 323.405C77.583 323.365 86.4747 325.105 94.772 328.523C103.069 331.941 110.608 336.97 116.953 343.32C123.297 349.67 128.322 357.215 131.738 365.519C135.153 373.823 136.891 382.722 136.851 391.702Z" fill="#F2F2F2"/>
<path d="M234.36 460C272.048 460 302.601 429.422 302.601 391.703C302.601 353.984 272.048 323.406 234.36 323.406C196.672 323.406 166.12 353.984 166.12 391.703C166.12 429.422 196.672 460 234.36 460Z" fill="#F2F2F2"/>
<path d="M36.9815 46.0801C39.8032 37.0799 46.2199 28.8253 55.094 25.7828C63.9687 22.7402 76.9634 27.375 83.6351 34.0297C95.839 46.2024 98.8172 88.0202 90.4326 101.235C88.7649 101.147 83.0102 101.081 81.3223 101.018L78.9345 93.0531V100.94C76.2454 100.856 73.5353 100.799 70.8041 100.767C61.6469 100.654 52.8904 96.9912 46.3755 90.5499C39.8605 84.1086 36.0945 75.3902 35.8693 66.2275C35.6508 57.462 35.8695 49.6268 36.9815 46.0801Z" fill="#2F2E41"/>
<path d="M67.5983 75.9087C78.3391 75.9087 87.0463 67.1943 87.0463 56.4445C87.0463 45.6948 78.3391 36.9803 67.5983 36.9803C56.8574 36.9803 48.1502 45.6948 48.1502 56.4445C48.1502 67.1943 56.8574 75.9087 67.5983 75.9087Z" fill="#9E616A"/>
<path d="M50.814 39.3503L73.2065 28.1285C77.7846 30.1932 81.7273 33.446 84.6259 37.5497C87.5245 41.6534 89.2734 46.4585 89.6912 51.4666L90.2493 58.1577L80.8724 55.7687L79.8451 47.2128L78.2527 55.1014L73.9253 53.9994L73.9665 40.7164L69.6364 53.9899L54.1809 50.4361L50.814 39.3503Z" fill="#2F2E41"/>
<path d="M211.434 199.523C216.755 199.523 221.069 195.206 221.069 189.881C221.069 184.556 216.755 180.239 211.434 180.239C206.113 180.239 201.8 184.556 201.8 189.881C201.8 195.206 206.113 199.523 211.434 199.523Z" fill="#2F2E41"/>
<path d="M226.849 236.164C240.329 236.164 251.257 225.228 251.257 211.737C251.257 198.246 240.329 187.31 226.849 187.31C213.37 187.31 202.442 198.246 202.442 211.737C202.442 225.228 213.37 236.164 226.849 236.164Z" fill="#2F2E41"/>
<path d="M228.869 236.158C239.823 236.158 248.703 227.271 248.703 216.308C248.703 205.346 239.823 196.458 228.869 196.458C217.915 196.458 209.035 205.346 209.035 216.308C209.035 227.271 217.915 236.158 228.869 236.158Z" fill="#9E616A"/>
<path d="M242.338 196.074C238.863 193.953 234.882 192.806 230.812 192.753C226.742 192.699 222.732 193.741 219.202 195.769C215.672 197.797 212.751 200.737 210.745 204.281C208.738 207.826 207.721 211.845 207.798 215.918C217.904 218.457 228.521 220.401 239.299 216.525L241.844 210.291L243.344 216.53C246.626 217.873 249.917 219.009 253.208 216.517C253.342 212.455 252.409 208.43 250.501 204.842C248.594 201.255 245.779 198.231 242.338 196.074Z" fill="#2F2E41"/>
<path d="M202.464 163.705C195.802 160.648 187.443 162.083 181.895 166.877C176.348 171.671 173.711 179.473 174.782 186.729C175.874 194.132 180.371 200.506 184.516 206.734C188.661 212.962 192.71 219.787 192.705 227.27C192.702 232.659 190.563 237.827 186.758 241.641C182.953 245.455 177.792 247.602 172.406 247.613C178.727 250.336 185.324 253.113 192.197 252.79C199.071 252.467 206.275 248.045 207.397 241.25C208.204 236.354 205.804 231.58 203.803 227.04C200.542 219.642 198.186 211.878 196.784 203.916C196.115 200.115 195.68 196.12 196.918 192.465C197.904 189.757 199.733 187.438 202.136 185.849C204.539 184.261 207.388 183.487 210.264 183.642L212.535 181.597C213.545 174.332 209.126 166.763 202.464 163.705Z" fill="#2F2E41"/>
<path d="M368.443 41.583C367.506 46.6192 365.971 51.525 363.868 56.1957C351.831 81.6824 386.112 73.375 398.363 73.375C411.757 73.375 424.573 80.4243 422.616 49.1019C421.78 35.7223 411.757 24.8287 398.363 24.8287C386.922 24.8287 370.835 29.9183 368.443 41.583Z" fill="#2F2E41"/>
<path d="M396.356 73.369C407.241 73.369 416.064 64.538 416.064 53.6443C416.064 42.7507 407.241 33.9197 396.356 33.9197C385.471 33.9197 376.648 42.7507 376.648 53.6443C376.648 64.538 385.471 73.369 396.356 73.369Z" fill="#FFB6B6"/>
<path d="M382.972 33.5378C386.425 31.4307 390.381 30.2908 394.425 30.2374C398.47 30.1841 402.454 31.2191 405.962 33.2344C409.47 35.2497 412.372 38.1712 414.366 41.6934C416.359 45.2155 417.371 49.2091 417.294 53.2564C407.252 55.7798 396.702 57.7109 385.992 53.86L383.463 47.665L381.972 53.8645C378.711 55.1987 375.441 56.3275 372.171 53.8517C372.037 49.8158 372.965 45.8155 374.86 42.2507C376.755 38.6859 379.553 35.6815 382.972 33.5378Z" fill="#2F2E41"/>
<path d="M68.8613 231.576C82.2872 231.576 93.171 220.683 93.171 207.246C93.171 193.809 82.2872 182.916 68.8613 182.916C55.4354 182.916 44.5515 193.809 44.5515 207.246C44.5515 220.683 55.4354 231.576 68.8613 231.576Z" fill="#FFB8B8"/>
<path d="M232.858 398.787C244.292 398.787 253.56 389.511 253.56 378.068C253.56 366.624 244.292 357.348 232.858 357.348C221.424 357.348 212.155 366.624 212.155 378.068C212.155 389.511 221.424 398.787 232.858 398.787Z" fill="#9E616A"/>
<path d="M232.756 75.2638C245.046 75.2638 255.008 65.293 255.008 52.9934C255.008 40.6937 245.046 30.7229 232.756 30.7229C220.467 30.7229 210.504 40.6937 210.504 52.9934C210.504 65.293 220.467 75.2638 232.756 75.2638Z" fill="#FFB8B8"/>
<path d="M252.348 38.2811C252.348 38.2811 258.142 27.1962 245.396 26.1885C245.396 26.1885 234.53 16.3232 223.454 24.385C223.454 24.385 217.413 24.385 214.109 31.2271C214.109 31.2271 209.358 29.4236 208.313 34.2502C208.313 34.2502 204.837 44.3274 208.313 53.3969C211.79 62.4663 212.945 63.4741 212.945 63.4741C212.945 63.4741 210.506 52.2194 224.412 51.2117C238.318 50.2039 251.075 41.4851 252.234 52.57C253.393 63.6549 254.667 58.6474 254.667 58.6474C254.667 58.6474 265.674 42.8159 252.348 38.2811Z" fill="#2F2E41"/>
<path d="M396.876 233.611C408.906 233.611 418.659 223.85 418.659 211.81C418.659 199.77 408.906 190.009 396.876 190.009C384.846 190.009 375.093 199.77 375.093 211.81C375.093 223.85 384.846 233.611 396.876 233.611Z" fill="#FFB6B6"/>
<path d="M96.5192 375.361V375.361L96.1816 375.97C99.187 368.557 96.4541 359.423 91.0928 353.833C85.7316 348.244 78.2784 345.688 70.9394 344.675C65.4913 343.922 59.8363 343.944 54.656 345.941C47.1543 348.833 41.4229 355.529 36.6375 362.494C34.4487 365.68 32.2966 369.312 32.5146 373.293C32.717 376.989 34.9086 380.124 36.7033 383.259C38.4982 386.394 39.997 390.284 38.7089 393.706C37.9413 395.745 36.319 397.213 35.0027 398.881C33.6864 400.549 32.6036 402.804 33.2394 404.897C33.5217 405.697 34.0067 406.411 34.6471 406.968C35.2874 407.525 36.0612 407.906 36.8928 408.074C38.484 408.445 40.1349 408.203 41.7465 407.959L83.5785 401.634C86.421 401.204 89.1176 400.092 91.4382 398.394C93.7588 396.696 95.6346 394.461 96.9057 391.88C98.1768 389.3 98.8055 386.45 98.7382 383.573C98.671 380.697 97.9097 377.88 96.5192 375.361Z" fill="#2F2E41"/>
<path d="M85.5923 384.151C87.4016 372.992 79.8298 362.478 68.6801 360.667C57.5303 358.856 47.0249 366.435 45.2156 377.594C43.4062 388.752 50.9781 399.267 62.1278 401.077C73.2776 402.888 83.7829 395.31 85.5923 384.151Z" fill="#FFB9B9"/>
<path d="M119.851 436.796C108.028 450.26 91.3902 458.53 73.5278 459.822C55.6654 461.114 38.0118 455.324 24.378 443.702L30.2311 427.356C31.5538 424.453 33.6412 421.965 36.2693 420.159C38.8975 418.352 41.9674 417.296 45.1497 417.103L48.8733 416.874L57.7523 409.21C57.7523 409.21 81.6762 408.355 81.3213 407.946L95.8127 416.67L95.8007 416.609L101.497 416.959C104.68 417.151 107.75 418.207 110.378 420.013C113.007 421.819 115.094 424.308 116.416 427.212L119.851 436.796Z" fill="#2F2E41"/>
<path d="M284.677 436.796C272.855 450.26 256.217 458.53 238.354 459.822C220.492 461.114 202.838 455.324 189.204 443.702L195.057 427.356C196.38 424.453 198.468 421.965 201.096 420.159C203.724 418.352 206.794 417.296 209.976 417.103L213.7 416.874L222.579 409.21C222.579 409.21 246.503 408.355 246.148 407.946L260.639 416.67L260.627 416.609L266.324 416.959C269.506 417.151 272.577 418.207 275.205 420.013C277.833 421.819 279.92 424.308 281.242 427.212L284.677 436.796Z" fill="#2F2E41"/>
<path d="M84.8035 361.874C84.2756 359.079 81.427 357.801 78.9864 357.181C71.9071 355.373 64.543 354.969 57.3086 355.99C52.0348 356.742 46.6358 358.402 42.8092 362.522C39.7237 365.991 37.9753 370.448 37.8784 375.091C37.7224 377.867 38.3422 380.632 39.6684 383.076C41.0455 385.409 43.3926 387.101 45.8156 387.041L46.061 387.895C56.3295 386.463 65.868 380.069 71.8755 370.59C70.748 374.619 68.5043 378.247 65.4036 381.054C72.3362 378.277 78.3625 373.629 82.8109 367.627C84.0257 366.013 85.2051 364.001 84.8035 361.874Z" fill="#2F2E41"/>
<path d="M119.249 270.027C107.427 283.491 90.7886 291.761 72.9262 293.053C55.0639 294.345 37.4103 288.555 23.7764 276.933L29.6295 260.587C30.9522 257.684 33.0396 255.196 35.6678 253.389C38.2959 251.583 41.3658 250.527 44.5481 250.334L48.2718 250.105L57.1507 242.441C57.1507 242.441 81.0746 241.586 80.7197 241.177L95.2112 249.901L95.1991 249.84L100.896 250.19C104.078 250.382 107.149 251.438 109.777 253.244C112.405 255.05 114.492 257.539 115.814 260.443L119.249 270.027Z" fill="#2F2E41"/>
<path d="M281.519 270.847C269.697 284.31 253.058 292.58 235.196 293.872C217.334 295.164 199.68 289.374 186.046 277.752L191.899 261.406C193.222 258.503 195.309 256.015 197.938 254.209C200.566 252.402 203.636 251.346 206.818 251.153L210.542 250.925L219.421 243.26C219.421 243.26 243.345 242.405 242.99 241.996L257.481 250.72L257.469 250.66L263.166 251.009C266.348 251.201 269.419 252.257 272.047 254.063C274.675 255.87 276.762 258.358 278.084 261.262L281.519 270.847Z" fill="#2F2E41"/>
<path d="M449.955 270.847C438.132 284.31 421.494 292.58 403.632 293.872C385.769 295.164 368.116 289.374 354.482 277.752L360.335 261.406C361.658 258.503 363.745 256.015 366.373 254.209C369.001 252.402 372.071 251.346 375.254 251.153L378.977 250.925L387.856 243.26C387.856 243.26 411.78 242.405 411.425 241.996L425.917 250.72L425.905 250.66L431.601 251.009C434.784 251.201 437.854 252.257 440.482 254.063C443.111 255.87 445.198 258.358 446.52 261.262L449.955 270.847Z" fill="#2F2E41"/>
<path d="M119.249 113.493C107.427 126.957 90.7886 135.227 72.9262 136.519C55.0639 137.811 37.4103 132.021 23.7764 120.399L29.6295 104.053C30.9522 101.15 33.0396 98.6617 35.6678 96.8554C38.2959 95.0492 41.3658 93.993 44.5481 93.8001L48.2718 93.5713L57.1507 85.9071C57.1507 85.9071 81.0746 85.0522 80.7197 84.6428L95.2112 93.3666L95.1991 93.3064L100.896 93.6556C104.078 93.8477 107.149 94.9036 109.777 96.7099C112.405 98.5162 114.492 101.005 115.814 103.909L119.249 113.493Z" fill="#2F2E41"/>
<path d="M280.918 113.71C269.095 127.174 252.457 135.444 234.595 136.736C216.732 138.028 199.079 132.238 185.445 120.616L191.298 104.27C192.621 101.367 194.708 98.8787 197.336 97.0725C199.964 95.2662 203.034 94.21 206.216 94.0171L209.94 93.7883L218.819 86.1242C218.819 86.1242 242.743 85.2692 242.388 84.8599L256.88 93.5836L256.867 93.5234L262.564 93.8726C265.747 94.0647 268.817 95.1206 271.445 96.9269C274.074 98.7333 276.161 101.222 277.483 104.126L280.918 113.71Z" fill="#2F2E41"/>
<path d="M449.353 113.71C437.531 127.174 420.893 135.444 403.03 136.736C385.168 138.028 367.514 132.238 353.88 120.616L359.734 104.27C361.056 101.367 363.144 98.8787 365.772 97.0725C368.4 95.2662 371.47 94.21 374.652 94.0171L378.376 93.7883L387.255 86.1242C387.255 86.1242 411.179 85.2692 410.824 84.8599L425.315 93.5836L425.303 93.5234L431 93.8726C434.182 94.0647 437.253 95.1206 439.881 96.9269C442.509 98.7333 444.596 101.222 445.918 104.126L449.353 113.71Z" fill="#2F2E41"/>
<path d="M419.85 198.289C418.009 191.695 413.827 186.001 408.089 182.274C403.515 179.346 397.809 177.852 392.628 179.4C387.446 180.948 383.157 186.037 383.496 191.535C381.626 190.898 379.5 191.746 378.131 193.193C376.762 194.641 376.026 196.589 375.499 198.527C373.836 204.692 373.946 211.201 375.816 217.305L375.714 218.181C378.241 217.763 380.159 215.592 381.351 213.28C382.543 210.967 383.229 208.402 384.521 206.145C385.813 203.889 387.959 201.877 390.519 201.807L390.293 205.723C392.496 204.587 394.698 203.451 396.9 202.316C396.377 203.57 395.853 204.824 395.329 206.078C397.252 205.274 399.176 204.469 401.099 203.665C400.884 204.871 400.669 206.077 400.454 207.283C402.361 202.937 408.26 201.029 412.273 203.458C414.604 204.869 416.133 207.383 416.937 210.024C417.741 212.665 417.9 215.458 418.054 218.219C421.026 212.008 421.663 204.933 419.85 198.289Z" fill="#2F2E41"/>
<path d="M214.047 387.646C214.006 387.533 213.969 387.418 213.929 387.305C213.849 387.375 213.773 387.448 213.687 387.513L214.047 387.646Z" fill="#2F2E41"/>
<path d="M257.657 370.697C257.551 368.594 257.001 366.538 256.043 364.664C255.085 362.79 253.741 361.14 252.1 359.824C250.893 358.869 249.497 358.063 248.699 356.747C248.243 355.816 247.857 354.852 247.543 353.863C245.954 350.078 241.425 348.065 237.362 348.639C233.299 349.212 229.783 351.947 227.414 355.301C226.247 354.741 224.945 354.528 223.661 354.686C222.376 354.845 221.164 355.368 220.168 356.194C219.172 357.021 218.433 358.116 218.039 359.349C217.646 360.583 217.613 361.903 217.946 363.155C215.842 361.459 212.439 362.815 211.126 365.178C209.812 367.541 210.021 370.433 210.411 373.109C211.118 377.944 212.297 382.699 213.929 387.305C215.978 385.5 215.852 382.212 215.602 379.432C215.342 376.545 215.497 373.019 218.02 371.594C220.458 370.218 223.416 371.729 226.104 372.511C228.229 373.113 230.459 373.247 232.641 372.904C234.823 372.56 236.904 371.747 238.742 370.521C240.142 369.573 241.388 368.386 242.897 367.624C244.407 366.862 246.327 366.597 247.732 367.538C249.016 368.396 249.537 369.998 249.974 371.48C251.009 374.993 252.044 378.505 253.078 382.017C254.598 380.561 255.791 378.799 256.58 376.848C257.37 374.897 257.737 372.8 257.657 370.697Z" fill="#2F2E41"/>
<path d="M94.5085 198.713C94.679 196.897 94.7572 195.073 94.7426 193.248C94.842 189.64 94.1814 186.051 92.8039 182.715C91.1098 179.022 88.0891 176.101 84.3423 174.534C80.6285 173.035 76.4779 173.038 72.7668 174.544C69.4161 172.425 65.6932 170.746 61.7725 170.538C57.8518 170.33 53.7065 171.786 51.2903 174.99C50.7508 175.836 50.138 176.633 49.459 177.371C47.5169 179.171 44.5653 178.912 41.9838 178.544C43.1417 179.537 44.2998 180.53 45.4583 181.523C44.0567 181.89 42.655 182.256 41.2532 182.622C42.8889 183.615 44.5245 184.608 46.1599 185.601C41.4116 188.453 39.2534 194.679 39.8235 200.333C40.3628 205.686 42.9452 210.582 46.0322 214.933C47.2636 212.332 46.9983 209.22 46.9779 206.29C46.9667 205.34 47.0246 204.391 47.1512 203.449C57.5838 205.952 68.4846 207.558 79.5392 203.583L81.7577 198.149C82.069 198.181 82.3805 198.211 82.6917 198.244L83.9769 203.588C86.8908 204.78 89.8109 205.822 92.732 204.727C92.8742 205.553 92.9597 206.395 93.0255 207.205C93.2762 206.236 93.4937 205.261 93.6898 204.281C94.0759 204.074 94.4457 203.837 94.7959 203.574C94.8664 201.948 94.7701 200.319 94.5085 198.713Z" fill="#2F2E41"/>
</g>
<defs>
<clipPath id="clip0_46_1921">
<rect width="467" height="460" fill="white"/>
</clipPath>
</defs>
</svg>
