<svg width="132" height="132" viewBox="0 0 132 132" fill="none" xmlns="http://www.w3.org/2000/svg">
<circle cx="65.7384" cy="66.036" r="65.7384" fill="#E5E5E5"/>
<path d="M85.358 92.0258H104.468V84.3818C104.468 81.9989 103.725 79.6753 102.344 77.7339C100.962 75.7925 99.0095 74.3299 96.7581 73.5493C94.5067 72.7687 92.068 72.7089 89.7811 73.3783C87.4941 74.0477 85.4726 75.413 83.9974 77.2843L85.358 92.0258ZM85.358 92.0258H47.138H85.358ZM85.358 92.0258V84.3818C85.358 81.8745 84.8764 79.4781 83.9974 77.2843L85.358 92.0258ZM47.138 92.0258H28.028V84.3818C28.0282 81.9989 28.7708 79.6753 30.1525 77.7339C31.5343 75.7925 33.4865 74.3299 35.7379 73.5493C37.9894 72.7687 40.428 72.7089 42.715 73.3783C45.0019 74.0477 47.0235 75.413 48.4986 77.2843L47.138 92.0258ZM47.138 92.0258V84.3818C47.138 81.8745 47.6196 79.4781 48.4986 77.2843L47.138 92.0258ZM48.4986 77.2843C49.918 73.7373 52.3674 70.697 55.5311 68.5553C58.6948 66.4137 62.4276 65.2691 66.248 65.2691C70.0684 65.2691 73.8012 66.4137 76.9649 68.5553C80.1286 70.697 82.5781 73.7373 83.9974 77.2843H48.4986ZM77.714 42.3398C77.714 45.3807 76.506 48.2972 74.3557 50.4475C72.2054 52.5978 69.289 53.8058 66.248 53.8058C63.207 53.8058 60.2906 52.5978 58.1403 50.4475C55.99 48.2972 54.782 45.3807 54.782 42.3398C54.782 39.2988 55.99 36.3824 58.1403 34.2321C60.2906 32.0818 63.207 30.8738 66.248 30.8738C69.289 30.8738 72.2054 32.0818 74.3557 34.2321C76.506 36.3824 77.714 39.2988 77.714 42.3398V42.3398ZM100.646 53.8058C100.646 55.8331 99.8407 57.7774 98.4071 59.2109C96.9736 60.6444 95.0293 61.4498 93.002 61.4498C90.9747 61.4498 89.0304 60.6444 87.5969 59.2109C86.1634 57.7774 85.358 55.8331 85.358 53.8058C85.358 51.7785 86.1634 49.8342 87.5969 48.4007C89.0304 46.9671 90.9747 46.1618 93.002 46.1618C95.0293 46.1618 96.9736 46.9671 98.4071 48.4007C99.8407 49.8342 100.646 51.7785 100.646 53.8058ZM47.138 53.8058C47.138 55.8331 46.3327 57.7774 44.8991 59.2109C43.4656 60.6444 41.5213 61.4498 39.494 61.4498C37.4667 61.4498 35.5224 60.6444 34.0889 59.2109C32.6554 57.7774 31.85 55.8331 31.85 53.8058C31.85 51.7785 32.6554 49.8342 34.0889 48.4007C35.5224 46.9671 37.4667 46.1618 39.494 46.1618C41.5213 46.1618 43.4656 46.9671 44.8991 48.4007C46.3327 49.8342 47.138 51.7785 47.138 53.8058Z" stroke="white" stroke-width="2" stroke-linecap="round" stroke-linejoin="round"/>
</svg>
