<svg width="33" height="27" viewBox="0 0 33 27" fill="none" xmlns="http://www.w3.org/2000/svg">
<path d="M1.17857 5.02344H31.8214C32.4724 5.02344 33 4.53378 33 3.92969V1.19531C33 0.591221 32.4724 0.101562 31.8214 0.101562H1.17857C0.527632 0.101562 0 0.591221 0 1.19531V3.92969C0 4.53378 0.527632 5.02344 1.17857 5.02344ZM1.17857 15.9609H31.8214C32.4724 15.9609 33 15.4713 33 14.8672V12.1328C33 11.5287 32.4724 11.0391 31.8214 11.0391H1.17857C0.527632 11.0391 0 11.5287 0 12.1328V14.8672C0 15.4713 0.527632 15.9609 1.17857 15.9609ZM1.17857 26.8984H31.8214C32.4724 26.8984 33 26.4088 33 25.8047V23.0703C33 22.4662 32.4724 21.9766 31.8214 21.9766H1.17857C0.527632 21.9766 0 22.4662 0 23.0703V25.8047C0 26.4088 0.527632 26.8984 1.17857 26.8984Z" fill="black"/>
</svg>
