<svg width="33" height="33" viewBox="0 0 33 33" fill="none" xmlns="http://www.w3.org/2000/svg">
<path d="M11 4.125C7.20913 4.125 4.125 7.20913 4.125 11V22C4.125 25.7909 7.20913 28.875 11 28.875H22C25.7909 28.875 28.875 25.7909 28.875 22V11C28.875 7.20913 25.7909 4.125 22 4.125H11ZM11 6.875H22C24.2743 6.875 26.125 8.72575 26.125 11V22C26.125 24.2743 24.2743 26.125 22 26.125H11C8.72575 26.125 6.875 24.2743 6.875 22V11C6.875 8.72575 8.72575 6.875 11 6.875ZM23.375 8.25C23.0103 8.25 22.6606 8.39487 22.4027 8.65273C22.1449 8.91059 22 9.26033 22 9.625C22 9.98967 22.1449 10.3394 22.4027 10.5973C22.6606 10.8551 23.0103 11 23.375 11C23.7397 11 24.0894 10.8551 24.3473 10.5973C24.6051 10.3394 24.75 9.98967 24.75 9.625C24.75 9.26033 24.6051 8.91059 24.3473 8.65273C24.0894 8.39487 23.7397 8.25 23.375 8.25ZM16.5 9.625C12.7091 9.625 9.625 12.7091 9.625 16.5C9.625 20.2909 12.7091 23.375 16.5 23.375C20.2909 23.375 23.375 20.2909 23.375 16.5C23.375 12.7091 20.2909 9.625 16.5 9.625ZM16.5 12.375C18.7743 12.375 20.625 14.2257 20.625 16.5C20.625 18.7743 18.7743 20.625 16.5 20.625C14.2257 20.625 12.375 18.7743 12.375 16.5C12.375 14.2257 14.2257 12.375 16.5 12.375Z" fill="black"/>
</svg>
