<?xml version="1.0" standalone="no"?>
<svg xmlns="http://www.w3.org/2000/svg" viewBox="0 0 119.592 36" ><g fill="#000000" color="#000000" transform="translate(0 6) scale(0.5)"><svg width="44.0" height="48.0" x="0.0" y="0.0" viewBox="0 0 44 48"><path fill="currentColor" fill-rule="evenodd" d="M26.592 7.876c-1.442 3.958-2.352 9.744-2.352 16.195 0 6.393.894 12.136 2.311 16.09-.691.939-1.454 1.46-2.256 1.46-3.13-.003-5.665-7.895-5.665-17.634 0-9.734 2.535-17.63 5.661-17.63.82.001 1.599.546 2.3 1.52M37.084 24.07c.003 6.693-1.663 12.123-3.716 12.123s-3.717-5.43-3.717-12.121c0-6.696 1.664-12.124 3.717-12.127 2.056.003 3.719 5.43 3.716 12.125M21.51 0c2.12.002 4.037 2.67 5.43 6.98 1.172-2.82 2.642-4.504 4.238-4.504 3.83-.005 6.936 9.668 6.934 21.594.002 11.926-3.106 21.597-6.937 21.596-1.607 0-3.089-1.711-4.265-4.573-1.389 4.256-3.296 6.882-5.397 6.884-4.257-.002-7.708-10.74-7.708-23.99C13.805 10.745 17.257 0 21.51 0zm-6.145 2.36c-5.194 4.504-8.651 12.467-8.651 21.535 0 9.067 3.455 17.03 8.655 21.531C6.292 41.661-.003 33.435 0 23.894 0 14.356 6.292 6.129 15.365 2.361zm26.647 14.91c1.098 0 1.986 2.9 1.988 6.483-.002 3.577-.891 6.48-1.99 6.48-1.096 0-1.985-2.9-1.987-6.482-.002-3.58.891-6.482 1.99-6.482z"></path></svg></g><path fill="#000000" fill-rule="nonzero" d="M4.15 20.74L0 20.74L0 0L4.15 0L4.15 9.22L6.17 3.17L10.51 3.17L7.87 10.80L11.23 20.74L6.77 20.74L4.15 12.46L4.15 20.74ZM14.98 20.93Q12.94 20.93 12.18 19.57Q11.42 18.22 11.42 15.70L11.42 15.70Q11.42 13.63 11.96 12.53Q12.50 11.42 13.46 10.91Q14.42 10.39 16.39 9.77L16.39 9.77L17.54 9.38L17.54 9.34L17.54 7.58Q17.54 6.89 17.27 6.52Q16.99 6.14 16.61 6.14L16.61 6.14Q16.27 6.14 16.02 6.46Q15.77 6.77 15.77 7.30L15.77 7.30L15.77 8.35L11.69 8.35L11.69 7.78Q11.69 5.18 12.90 4.08Q14.11 2.98 16.85 2.98L16.85 2.98Q19.03 2.98 20.40 4.12Q21.77 5.26 21.77 7.34L21.77 7.34L21.77 20.74L17.59 20.74L17.59 18.65Q17.28 19.73 16.60 20.33Q15.91 20.93 14.98 20.93L14.98 20.93ZM16.63 17.66Q17.11 17.66 17.32 17.27Q17.52 16.87 17.52 16.30L17.52 16.30L17.52 11.40Q16.58 11.76 16.14 12.31Q15.70 12.86 15.70 13.85L15.70 13.85L15.70 16.10Q15.70 17.66 16.63 17.66L16.63 17.66ZM23.38 20.74L23.38 3.17L27.58 3.17L27.58 5.40Q27.84 4.32 28.49 3.65Q29.14 2.98 30.22 2.98L30.22 2.98Q31.99 2.98 32.84 4.07Q33.70 5.16 33.70 7.18L33.70 7.18L33.70 20.74L29.57 20.74L29.57 7.61Q29.57 7.03 29.34 6.62Q29.11 6.22 28.63 6.22L28.63 6.22Q27.98 6.22 27.78 6.80Q27.58 7.39 27.58 8.38L27.58 8.38L27.58 20.74L23.38 20.74ZM40.08 23.30Q38.21 23.30 37.14 23.00Q36.07 22.70 35.04 21.86L35.04 21.86L36.48 19.44Q38.02 20.35 39.53 20.35L39.53 20.35Q40.51 20.35 41.02 19.73Q41.52 19.10 41.52 18.02L41.52 18.02L41.52 17.06Q41.02 18.86 38.86 18.86L38.86 18.86Q37.06 18.86 36.20 17.64Q35.35 16.42 35.35 14.38L35.35 14.38L35.35 7.78Q35.35 5.45 36.13 4.21Q36.91 2.98 38.86 2.98L38.86 2.98Q39.98 2.98 40.64 3.54Q41.30 4.10 41.52 5.14L41.52 5.14L41.52 3.17L45.82 3.17L45.82 17.76Q45.82 20.71 44.45 22.01Q43.08 23.30 40.08 23.30L40.08 23.30ZM40.54 15.70Q41.52 15.70 41.52 13.92L41.52 13.92L41.52 7.66Q41.52 7.13 41.23 6.65Q40.94 6.17 40.51 6.17L40.51 6.17Q39.96 6.17 39.77 6.56Q39.58 6.96 39.58 7.66L39.58 7.66L39.58 13.92Q39.58 14.71 39.77 15.20Q39.96 15.70 40.54 15.70L40.54 15.70ZM50.64 20.93Q48.60 20.93 47.84 19.57Q47.09 18.22 47.09 15.70L47.09 15.70Q47.09 13.63 47.63 12.53Q48.17 11.42 49.13 10.91Q50.09 10.39 52.06 9.77L52.06 9.77L53.21 9.38L53.21 9.34L53.21 7.58Q53.21 6.89 52.93 6.52Q52.66 6.14 52.27 6.14L52.27 6.14Q51.94 6.14 51.68 6.46Q51.43 6.77 51.43 7.30L51.43 7.30L51.43 8.35L47.35 8.35L47.35 7.78Q47.35 5.18 48.56 4.08Q49.78 2.98 52.51 2.98L52.51 2.98Q54.70 2.98 56.06 4.12Q57.43 5.26 57.43 7.34L57.43 7.34L57.43 20.74L53.26 20.74L53.26 18.65Q52.94 19.73 52.26 20.33Q51.58 20.93 50.64 20.93L50.64 20.93ZM52.30 17.66Q52.78 17.66 52.98 17.27Q53.18 16.87 53.18 16.30L53.18 16.30L53.18 11.40Q52.25 11.76 51.80 12.31Q51.36 12.86 51.36 13.85L51.36 13.85L51.36 16.10Q51.36 17.66 52.30 17.66L52.30 17.66ZM59.04 20.74L59.04 3.17L63.24 3.17L63.24 5.11Q63.55 4.08 64.33 3.52Q65.11 2.95 66.26 2.95L66.26 2.95L66.26 6.46Q65.38 6.46 64.31 6.71Q63.24 6.96 63.24 7.30L63.24 7.30L63.24 20.74L59.04 20.74ZM72.41 20.93Q67.15 20.93 67.15 15.48L67.15 15.48L67.15 8.42Q67.15 5.93 68.56 4.45Q69.96 2.98 72.41 2.98L72.41 2.98Q74.86 2.98 76.26 4.45Q77.66 5.93 77.66 8.42L77.66 8.42L77.66 15.48Q77.66 20.93 72.41 20.93L72.41 20.93ZM72.41 17.69Q72.91 17.69 73.15 17.33Q73.39 16.97 73.39 16.34L73.39 16.34L73.39 7.75Q73.39 6.22 72.41 6.22L72.41 6.22Q71.42 6.22 71.42 7.75L71.42 7.75L71.42 16.34Q71.42 16.97 71.66 17.33Q71.90 17.69 72.41 17.69L72.41 17.69ZM84.34 20.93Q79.08 20.93 79.08 15.48L79.08 15.48L79.08 8.42Q79.08 5.93 80.48 4.45Q81.89 2.98 84.34 2.98L84.34 2.98Q86.78 2.98 88.19 4.45Q89.59 5.93 89.59 8.42L89.59 8.42L89.59 15.48Q89.59 20.93 84.34 20.93L84.34 20.93ZM84.34 17.69Q84.84 17.69 85.08 17.33Q85.32 16.97 85.32 16.34L85.32 16.34L85.32 7.75Q85.32 6.22 84.34 6.22L84.34 6.22Q83.35 6.22 83.35 7.75L83.35 7.75L83.35 16.34Q83.35 16.97 83.59 17.33Q83.83 17.69 84.34 17.69L84.34 17.69Z" transform="translate(30, 7.632)"></path></svg>
