<svg width="33" height="33" viewBox="0 0 33 33" fill="none" xmlns="http://www.w3.org/2000/svg">
<g clip-path="url(#clip0_63_120)">
<path fill-rule="evenodd" clip-rule="evenodd" d="M19.944 5.41475C18.8625 8.13587 18.18 12.1137 18.18 16.5488C18.18 20.944 18.8505 24.8923 19.9133 27.6107C19.395 28.2562 18.8228 28.6144 18.2213 28.6144C15.8738 28.6124 13.9725 23.1866 13.9725 16.4911C13.9725 9.79894 15.8738 4.37044 18.2183 4.37044C18.8333 4.37112 19.4175 4.74581 19.9433 5.41544L19.944 5.41475ZM27.813 16.5481C27.8153 21.1496 26.5658 24.8827 25.026 24.8827C23.4862 24.8827 22.2383 21.1496 22.2383 16.5495C22.2383 11.946 23.4862 8.21425 25.026 8.21219C26.568 8.21425 27.8153 11.9453 27.813 16.5481ZM16.1325 0C17.7225 0.001375 19.1603 1.83562 20.205 4.79875C21.084 2.86 22.1865 1.70225 23.3835 1.70225C26.256 1.69881 28.5855 8.349 28.584 16.5481C28.5855 24.7472 26.2545 31.3961 23.3813 31.3954C22.176 31.3954 21.0645 30.2191 20.1825 28.2514C19.1408 31.1774 17.7105 32.9828 16.1348 32.9842C12.942 32.9828 10.3538 25.6004 10.3538 16.4911C10.3538 7.38719 12.9428 0 16.1325 0ZM11.5238 1.6225C7.62825 4.719 5.0355 10.1936 5.0355 16.4278C5.0355 22.6614 7.62675 28.1359 11.5268 31.2304C4.719 28.6419 -0.0022492 22.9866 8.03862e-07 16.4271C8.03862e-07 9.86975 4.719 4.21369 11.5238 1.62319V1.6225ZM31.509 11.8731C32.3325 11.8731 32.9985 13.8669 33 16.3302C32.9985 18.7894 32.3317 20.7852 31.5075 20.7852C30.6855 20.7852 30.0187 18.7914 30.0173 16.3288C30.0157 13.8676 30.6855 11.8724 31.5098 11.8724L31.509 11.8731Z" fill="black"/>
</g>
<defs>
<clipPath id="clip0_63_120">
<rect width="33" height="33" fill="white"/>
</clipPath>
</defs>
</svg>
