<svg  viewBox="0 0 50 50" fill="none" xmlns="http://www.w3.org/2000/svg">
<circle cx="25" cy="25" r="25" fill="#E5E5E5"/>
<path d="M25 19.6667C22.7907 19.6667 21 20.86 21 22.3333C21 23.8067 22.7907 25 25 25C27.2093 25 29 26.1933 29 27.6667C29 29.14 27.2093 30.3333 25 30.3333V19.6667ZM25 19.6667C26.48 19.6667 27.7733 20.2027 28.4653 21L25 19.6667ZM25 19.6667V18.3333V19.6667ZM25 19.6667V30.3333V19.6667ZM25 30.3333V31.6667V30.3333ZM25 30.3333C23.52 30.3333 22.2267 29.7973 21.5347 29L25 30.3333ZM37 25C37 26.5759 36.6896 28.1363 36.0866 29.5922C35.4835 31.0481 34.5996 32.371 33.4853 33.4853C32.371 34.5996 31.0481 35.4835 29.5922 36.0866C28.1363 36.6896 26.5759 37 25 37C23.4241 37 21.8637 36.6896 20.4078 36.0866C18.9519 35.4835 17.629 34.5996 16.5147 33.4853C15.4004 32.371 14.5165 31.0481 13.9134 29.5922C13.3104 28.1363 13 26.5759 13 25C13 21.8174 14.2643 18.7652 16.5147 16.5147C18.7652 14.2643 21.8174 13 25 13C28.1826 13 31.2348 14.2643 33.4853 16.5147C35.7357 18.7652 37 21.8174 37 25Z" stroke="#464343" stroke-width="2" stroke-linecap="round" stroke-linejoin="round"/>
</svg>
