<svg width="130" height="129" viewBox="0 0 130 129" fill="none" xmlns="http://www.w3.org/2000/svg">
<circle cx="65" cy="64.5" r="64.5" fill="#E5E5E5"/>
<path d="M65.5 51C59.7005 51 55 54.1325 55 58C55 61.8675 59.7005 65 65.5 65C71.2995 65 76 68.1325 76 72C76 75.8675 71.2995 79 65.5 79V51ZM65.5 51C69.385 51 72.78 52.407 74.5965 54.5L65.5 51ZM65.5 51V47.5V51ZM65.5 51V79V51ZM65.5 79V82.5V79ZM65.5 79C61.615 79 58.22 77.593 56.4035 75.5L65.5 79ZM97 65C97 69.1366 96.1852 73.2328 94.6022 77.0545C93.0192 80.8763 90.6989 84.3488 87.7739 87.2739C84.8488 90.1989 81.3763 92.5192 77.5545 94.1022C73.7328 95.6852 69.6366 96.5 65.5 96.5C61.3634 96.5 57.2672 95.6852 53.4455 94.1022C49.6237 92.5192 46.1512 90.1989 43.2261 87.2739C40.3011 84.3488 37.9808 80.8763 36.3978 77.0545C34.8148 73.2328 34 69.1366 34 65C34 56.6457 37.3187 48.6335 43.2261 42.7261C49.1335 36.8187 57.1457 33.5 65.5 33.5C73.8543 33.5 81.8665 36.8187 87.7739 42.7261C93.6813 48.6335 97 56.6457 97 65Z" stroke="white" stroke-width="2" stroke-linecap="round" stroke-linejoin="round"/>
</svg>
