<svg width="132" height="132" viewBox="0 0 132 132" fill="none" xmlns="http://www.w3.org/2000/svg">
<circle cx="65.7384" cy="65.8968" r="65.7384" fill="#E5E5E5"/>
<path d="M66.248 69.719V77.363V69.719ZM43.316 92.651H89.18C91.2073 92.651 93.1516 91.8456 94.5851 90.4121C96.0186 88.9786 96.824 87.0343 96.824 85.007V62.075C96.824 60.0477 96.0186 58.1034 94.5851 56.6699C93.1516 55.2363 91.2073 54.431 89.18 54.431H43.316C41.2887 54.431 39.3444 55.2363 37.9109 56.6699C36.4773 58.1034 35.672 60.0477 35.672 62.075V85.007C35.672 87.0343 36.4773 88.9786 37.9109 90.4121C39.3444 91.8456 41.2887 92.651 43.316 92.651ZM81.536 54.431V39.143C81.536 35.0884 79.9253 31.1998 77.0582 28.3327C74.1912 25.4657 70.3026 23.855 66.248 23.855C62.1934 23.855 58.3048 25.4657 55.4377 28.3327C52.5707 31.1998 50.96 35.0884 50.96 39.143V54.431H81.536Z" stroke="white" stroke-width="2" stroke-linecap="round" stroke-linejoin="round"/>
</svg>
