<svg width="132" height="132" viewBox="0 0 132 132" fill="none" xmlns="http://www.w3.org/2000/svg">
<circle cx="65.7384" cy="66.1752" r="65.7384" fill="#E5E5E5"/>
<path d="M85.358 53.1806V45.5366C85.358 43.5093 84.5527 41.565 83.1191 40.1315C81.6856 38.6979 79.7413 37.8926 77.714 37.8926H39.494C37.4667 37.8926 35.5224 38.6979 34.0889 40.1315C32.6554 41.565 31.85 43.5093 31.85 45.5366V68.4686C31.85 70.4959 32.6554 72.4402 34.0889 73.8737C35.5224 75.3072 37.4667 76.1126 39.494 76.1126H47.138L85.358 53.1806ZM54.782 91.4006H93.002C95.0293 91.4006 96.9736 90.5952 98.4071 89.1617C99.8407 87.7282 100.646 85.7839 100.646 83.7566V60.8246C100.646 58.7973 99.8407 56.853 98.4071 55.4195C96.9736 53.9859 95.0293 53.1806 93.002 53.1806H54.782C52.7547 53.1806 50.8104 53.9859 49.3769 55.4195C47.9434 56.853 47.138 58.7973 47.138 60.8246V83.7566C47.138 85.7839 47.9434 87.7282 49.3769 89.1617C50.8104 90.5952 52.7547 91.4006 54.782 91.4006ZM81.536 72.2906C81.536 74.3179 80.7307 76.2622 79.2971 77.6957C77.8636 79.1292 75.9193 79.9346 73.892 79.9346C71.8647 79.9346 69.9204 79.1292 68.4869 77.6957C67.0534 76.2622 66.248 74.3179 66.248 72.2906C66.248 70.2633 67.0534 68.319 68.4869 66.8855C69.9204 65.4519 71.8647 64.6466 73.892 64.6466C75.9193 64.6466 77.8636 65.4519 79.2971 66.8855C80.7307 68.319 81.536 70.2633 81.536 72.2906V72.2906Z" stroke="white" stroke-width="2" stroke-linecap="round" stroke-linejoin="round"/>
</svg>
