<svg width="89" height="105" viewBox="0 0 89 105" fill="none" xmlns="http://www.w3.org/2000/svg">
<g clip-path="url(#clip0_30_65)">
<path d="M0.802002 65.5935V85.1842C0.802002 96.0048 20.3129 104.775 44.381 104.775C68.449 104.775 87.9599 96.0048 87.9599 85.1842V65.5935C87.9599 76.4141 68.449 85.1842 44.381 85.1842C20.3129 85.1842 0.802002 76.4141 0.802002 65.5935Z" fill="black"/>
<path d="M0.802002 32.9424V52.5331C0.802002 63.3537 20.3129 72.1238 44.381 72.1238C68.449 72.1238 87.9599 63.3537 87.9599 52.5331V32.9424C87.9599 43.763 68.449 52.5331 44.381 52.5331C20.3129 52.5331 0.802002 43.763 0.802002 32.9424Z" fill="black"/>
<path d="M87.9599 19.8819C87.9599 30.7025 68.449 39.4726 44.381 39.4726C20.3129 39.4726 0.802002 30.7025 0.802002 19.8819C0.802002 9.0613 20.3129 0.291199 44.381 0.291199C68.449 0.291199 87.9599 9.0613 87.9599 19.8819Z" fill="black"/>
</g>
<defs>
<clipPath id="clip0_30_65">
<rect width="87.619" height="104" fill="white" transform="translate(0.571411 0.533081)"/>
</clipPath>
</defs>
</svg>
