<svg width="33" height="33" viewBox="0 0 33 33" fill="none" xmlns="http://www.w3.org/2000/svg">
<path d="M30.8 7.63074C29.7473 8.09824 28.6165 8.41284 27.4296 8.55474C28.6418 7.82874 29.5713 6.67924 30.0091 5.30864C28.8761 5.98074 27.6199 6.46914 26.2823 6.73314C25.212 5.59244 23.6874 4.87964 22 4.87964C18.7594 4.87964 16.1326 7.50754 16.1326 10.747C16.1326 11.2068 16.1854 11.6556 16.2844 12.0835C11.4081 11.8393 7.08511 9.50294 4.18991 5.95214C3.68611 6.81894 3.39681 7.82654 3.39681 8.90344C3.39681 10.9384 4.43191 12.7347 6.00601 13.7863C5.04461 13.7555 4.13931 13.4915 3.34841 13.0526C3.34841 13.0779 3.34841 13.101 3.34841 13.1263C3.34841 15.9698 5.37021 18.3414 8.05531 18.8793C7.56361 19.0135 7.04441 19.085 6.50871 19.085C6.13141 19.085 5.76291 19.0476 5.40541 18.9805C6.15231 21.3114 8.31931 23.0087 10.8867 23.056C8.87921 24.6301 6.34921 25.5684 3.59921 25.5684C3.12621 25.5684 2.65871 25.5409 2.19891 25.4859C4.79601 27.1502 7.87931 28.1215 11.1936 28.1215C21.9868 28.1215 27.8872 19.1807 27.8872 11.4268C27.8872 11.1727 27.8817 10.9197 27.8707 10.6678C29.018 9.83954 30.0135 8.80664 30.8 7.63074Z" fill="black"/>
</svg>
