<svg width="106" height="106" viewBox="0 0 106 106" fill="none" xmlns="http://www.w3.org/2000/svg">
<path fill-rule="evenodd" clip-rule="evenodd" d="M53 106C67.0565 106 80.5372 100.416 90.4767 90.4767C100.416 80.5372 106 67.0565 106 53C106 38.9435 100.416 25.4628 90.4767 15.5233C80.5372 5.58391 67.0565 0 53 0C38.9435 0 25.4628 5.58391 15.5233 15.5233C5.58391 25.4628 0 38.9435 0 53C0 67.0565 5.58391 80.5372 15.5233 90.4767C25.4628 100.416 38.9435 106 53 106V106ZM77.5589 44.4339C78.7657 43.1844 79.4334 41.5109 79.4183 39.7738C79.4032 38.0368 78.7065 36.3752 77.4782 35.1468C76.2498 33.9185 74.5882 33.2218 72.8512 33.2067C71.1141 33.1916 69.4406 33.8593 68.1911 35.0661L46.375 56.8823L37.8089 48.3161C36.5594 47.1093 34.8859 46.4416 33.1488 46.4567C31.4118 46.4718 29.7502 47.1685 28.5218 48.3968C27.2935 49.6252 26.5968 51.2868 26.5817 53.0238C26.5666 54.7609 27.2343 56.4344 28.4411 57.6839L41.6911 70.9339C42.9335 72.1759 44.6183 72.8736 46.375 72.8736C48.1317 72.8736 49.8165 72.1759 51.0589 70.9339L77.5589 44.4339V44.4339Z" fill="black"/>
</svg>
